<svg xmlns="http://www.w3.org/2000/svg" width="138.131" height="30" viewBox="0 0 138.131 30">
  <g id="corporate_home_2_u15612" opacity="0.2">
    <path id="Контур_15" data-name="Контур 15" d="M54.732,72.333s-1.458-1.786-2.32-2.752L51.2,72.436c1.745,2.587,2.9,4.825,3.532,5.893A54.111,54.111,0,0,1,65.2,64.222l-.7-1.622a53.346,53.346,0,0,0-9.774,9.733" transform="translate(-40.687 -49.746)" fill="#fff"/>
    <path id="Контур_16" data-name="Контур 16" d="M354.438,23.183a2.616,2.616,0,0,0,2.505,2.772V30c-4.6-.062-7.043-2.279-7.043-6.489V0h4.538Z" transform="translate(-278.052)" fill="#fff" fill-rule="evenodd"/>
    <path id="Контур_17" data-name="Контур 17" d="M401.985,42.6A10.294,10.294,0,0,0,391.8,53.154c0,5.893,4.353,10.554,9.795,10.554a8.2,8.2,0,0,0,6.3-2.567l.246.082V63.3H412.7V43.011h-4.559v1.417l-.205.082a8.966,8.966,0,0,0-5.955-1.91m.554,17.31a6.475,6.475,0,0,1-6.222-6.735,6.449,6.449,0,0,1,6.222-6.735,9.2,9.2,0,0,1,5.565,1.7V56.83a5.907,5.907,0,0,1-5.565,3.08" transform="translate(-311.348 -33.853)" fill="#fff" fill-rule="evenodd"/>
    <path id="Контур_18" data-name="Контур 18" d="M511.82,63.36h4.538V49.15a7.9,7.9,0,0,1,5.729-2.4h.965V42.6h-.575a7.6,7.6,0,0,0-5.893,2.793l-.246-.082v-2.3H511.8V63.36Z" transform="translate(-406.708 -33.853)" fill="#fff" fill-rule="evenodd"/>
    <path id="Контур_19" data-name="Контур 19" d="M240.205,42.6A10.324,10.324,0,0,0,230,53.154c0,5.893,4.353,10.554,9.795,10.554a8.237,8.237,0,0,0,6.3-2.567l.246.082V63.3H250.9V43.011h-4.559v1.417l-.205.082a8.867,8.867,0,0,0-5.934-1.91m.554,17.31a6.475,6.475,0,0,1-6.222-6.735,6.436,6.436,0,0,1,6.222-6.735,9.2,9.2,0,0,1,5.565,1.7V56.83a5.907,5.907,0,0,1-5.565,3.08" transform="translate(-182.772 -33.853)" fill="#fff" fill-rule="evenodd"/>
    <path id="Контур_20" data-name="Контур 20" d="M581.085,42.6A10.294,10.294,0,0,0,570.9,53.154c0,5.893,4.353,10.554,9.795,10.554a8.237,8.237,0,0,0,6.3-2.567l.246.082V63.3H591.8V43.011h-4.558v1.417l-.205.082a8.966,8.966,0,0,0-5.955-1.91m.554,17.31a6.458,6.458,0,0,1-6.2-6.735,6.433,6.433,0,0,1,6.2-6.735,9.2,9.2,0,0,1,5.565,1.7V56.83a5.907,5.907,0,0,1-5.565,3.08" transform="translate(-453.672 -33.853)" fill="#fff" fill-rule="evenodd"/>
    <path id="Контур_21" data-name="Контур 21" d="M102.031,102.931h4.949L102.626,92.5A48.692,48.692,0,0,0,99.3,96.463Z" transform="translate(-78.91 -73.506)" fill="#fff"/>
    <path id="Контур_22" data-name="Контур 22" d="M139.344,44.7,133,59.546h-.246L126.408,44.7H121.5l9.055,20.246h4.62L144.231,44.7Z" transform="translate(-96.551 -35.521)" fill="#fff"/>
    <path id="Контур_23" data-name="Контур 23" d="M16.2,5.3H11.848L0,33.637H4.949l8.563-20.205.411-1.088h.226l.411,1.088,2.546,6a47.137,47.137,0,0,1,3.655-3.285Z" transform="translate(0 -4.212)" fill="#fff"/>
  </g>
</svg>
