<svg id="avanade" xmlns="http://www.w3.org/2000/svg" width="258.415" height="54.392" viewBox="0 0 258.415 54.392">
  <g id="g81" transform="translate(79.812 26.346)">
    <path id="path83" d="M156.627,48.431a23.238,23.238,0,0,0-4.382.409,11.138,11.138,0,0,0-3.387,1.129l.419,4.231a27.686,27.686,0,0,1,3.387-.767,20.292,20.292,0,0,1,3.03-.228q5.786,0,5.785,4.428v.994a20.487,20.487,0,0,0-3.8-.269q-5.065,0-8,2.258a7.433,7.433,0,0,0-2.937,6.215q0,8.137,11.12,8.137a35.092,35.092,0,0,0,9.4-1.357V58.075q.026-9.644-10.638-9.644m4.879,21.7a13.832,13.832,0,0,1-3.708.451q-5.242,0-5.241-3.8,0-3.978,5.785-3.978a11.91,11.91,0,0,1,3.165.269v7.054" transform="translate(-146.739 -48.431)" fill="#18191a"/>
  </g>
  <g id="g87" transform="translate(102.985 26.978)">
    <path id="path89" d="M189.343,49.593h6.417L202,69.118l6.329-19.526h6.148L204.891,74.9h-5.967l-9.582-25.311" transform="translate(-189.343 -49.593)" fill="#18191a"/>
  </g>
  <g id="g93" transform="translate(129.466 26.346)">
    <path id="path95" d="M247.887,48.431a23.244,23.244,0,0,0-4.382.409,11.139,11.139,0,0,0-3.387,1.129l.451,4.247a27.687,27.687,0,0,1,3.387-.767,20.3,20.3,0,0,1,3.03-.228q5.786,0,5.785,4.428v.994a20.486,20.486,0,0,0-3.8-.269q-5.065,0-8,2.258a7.433,7.433,0,0,0-2.937,6.215q0,8.137,11.12,8.137a35.092,35.092,0,0,0,9.4-1.357V58.09q-.005-9.659-10.669-9.659m4.879,21.7a13.832,13.832,0,0,1-3.708.451q-5.242,0-5.241-3.8,0-3.978,5.785-3.978a11.909,11.909,0,0,1,3.165.269v7.054" transform="translate(-238.03 -48.431)" fill="#18191a"/>
  </g>
  <g id="g99" transform="translate(156.456 26.325)">
    <path id="path101" d="M303.563,59.44q0-3.434-1.31-4.744t-4.661-1.31a12.615,12.615,0,0,0-1.942.181,20.44,20.44,0,0,0-2.124.451V74.356h-5.873V50.314a25.583,25.583,0,0,1,5.138-1.4,33.144,33.144,0,0,1,5.6-.518q11.026,0,11.027,9.944v16h-5.858V59.44" transform="translate(-287.652 -48.393)" fill="#18191a"/>
  </g>
  <g id="g105" transform="translate(182.844 26.346)">
    <path id="path107" d="M346.024,48.431a23.244,23.244,0,0,0-4.382.409,11.139,11.139,0,0,0-3.387,1.129l.451,4.247a27.688,27.688,0,0,1,3.387-.767,20.3,20.3,0,0,1,3.03-.228q5.786,0,5.785,4.428v.994a20.486,20.486,0,0,0-3.8-.269q-5.065,0-8,2.258a7.433,7.433,0,0,0-2.937,6.215q0,8.137,11.12,8.137a35.093,35.093,0,0,0,9.4-1.357V58.09q0-9.659-10.669-9.659m4.879,21.7a13.833,13.833,0,0,1-3.708.451q-5.242,0-5.241-3.8,0-3.978,5.785-3.978a11.91,11.91,0,0,1,3.164.269v7.054" transform="translate(-336.167 -48.431)" fill="#18191a"/>
  </g>
  <g id="g111" transform="translate(207.969 17.215)">
    <path id="path113" d="M399.634,31.643v9.675a13.746,13.746,0,0,0-4.247-.518,12.471,12.471,0,0,0-9.4,3.75,13.576,13.576,0,0,0-3.625,9.81q0,6.329,3.527,9.67T396.2,67.375a36.2,36.2,0,0,0,9.323-1.357V31.643h-5.884m0,30.459a12.116,12.116,0,0,1-3.625.363q-7.5,0-7.5-8.225a9.589,9.589,0,0,1,1.942-6.417,6.76,6.76,0,0,1,5.469-2.258,9.743,9.743,0,0,1,3.708.632l.01,15.906" transform="translate(-382.362 -31.643)" fill="#18191a"/>
  </g>
  <g id="g117" transform="translate(235.818 26.346)">
    <path id="path119" d="M456.16,60.364q0-5.511-2.89-8.722a10.046,10.046,0,0,0-7.862-3.211,10.955,10.955,0,0,0-8.634,3.625q-3.211,3.626-3.211,9.841T437,71.567q3.434,3.455,9.763,3.434a21.456,21.456,0,0,0,7.878-1.44l-.632-4.428a20.769,20.769,0,0,1-6.78,1.082q-7.427,0-7.608-6.692H456.16V60.364m-16.543-1.269a7.532,7.532,0,0,1,1.761-4.522,4.972,4.972,0,0,1,3.843-1.626,4.837,4.837,0,0,1,3.8,1.626,6.572,6.572,0,0,1,1.445,4.522H439.618" transform="translate(-433.563 -48.431)" fill="#18191a"/>
  </g>
  <g id="g123" transform="translate(0 0)">
    <path id="path125" d="M16.983,16.156q-2.994,5.832-4.853,9.323a52.751,52.751,0,0,1-3.418,5.64,17.4,17.4,0,0,1-3.3,3.553A47.818,47.818,0,0,1,.989,37.7L0,36.169A38.089,38.089,0,0,0,3.045,33.7a21.421,21.421,0,0,0,2.906-3.392,64.393,64.393,0,0,0,3.6-5.811q2.041-3.626,5.045-9.841A60.034,60.034,0,0,1,18.682,7.33a25.052,25.052,0,0,1,3.729-4.5A11.26,11.26,0,0,1,25.9.582,8.649,8.649,0,0,1,29.3,0,8.458,8.458,0,0,1,32.583.81a11.555,11.555,0,0,1,3.553,2.968,41.028,41.028,0,0,1,4.3,6.35Q42.822,14.271,46.07,21a71.578,71.578,0,0,0,3.973,7.251,26.26,26.26,0,0,0,3.822,4.817,17.777,17.777,0,0,0,4.288,3.076,31.44,31.44,0,0,0,5.324,2.072l1.264,2.129a28.143,28.143,0,0,1-6.479-1.4,16.858,16.858,0,0,1-5.288-3.108,27.642,27.642,0,0,1-4.734-5.4,65.74,65.74,0,0,1-4.718-8.287q-3.009-6.039-5.1-9.841A47.867,47.867,0,0,0,34.7,6.434,11.177,11.177,0,0,0,31.8,3.581a5.5,5.5,0,0,0-2.59-.787,5.951,5.951,0,0,0-2.719.559,9.152,9.152,0,0,0-2.776,2.175A29.7,29.7,0,0,0,20.6,9.671q-1.657,2.626-3.62,6.484" transform="translate(0 0.008)" fill="#18191a"/>
  </g>
  <g id="g131" transform="translate(1.217 32.27)">
    <path id="path133" d="M47.676,68.7a50.669,50.669,0,0,0,8.722-.435,38.557,38.557,0,0,0,7.639-1.787l.3,1.58q-5.967,3.807-16.75,3.429a37.625,37.625,0,0,1-8.406-1.124A36.129,36.129,0,0,1,32.9,68.092q-2.072-.943-3.936-1.968t-3.812-1.88a32.242,32.242,0,0,0-3.931-1.45,17.315,17.315,0,0,0-4.288-.673,32.371,32.371,0,0,0-6.852.518,37.9,37.9,0,0,0-6.842,1.89l-1-1.171,1.859-.9a22.55,22.55,0,0,1,6.137-2.4,25.024,25.024,0,0,1,6.775-.725,21.033,21.033,0,0,1,4.806.694,27.631,27.631,0,0,1,4.169,1.5q1.968.9,3.936,1.968t4.107,2.02a43.994,43.994,0,0,0,5.837,2.129,32.864,32.864,0,0,0,7.81,1.057" transform="translate(-2.238 -59.323)" fill="#18191a"/>
  </g>
  <g id="g139" transform="translate(0 17.516)">
    <path id="path141" d="M50.886,35a5.7,5.7,0,0,0-2.988.725,13.3,13.3,0,0,0-3.278,2.9,57.572,57.572,0,0,0-4.34,5.827q-2.471,3.714-6.169,9.6-4.982,8.038-9.25,11.6a13.127,13.127,0,0,1-8.95,3.418q-4.957-.171-9.323-4.951T0,50.857l2.766.518A31.269,31.269,0,0,0,8.572,62.1Q12.088,66.084,16,66.239q3.651.13,7.38-3.061T31.63,52.747Q35.69,46.278,38.441,42.2a54.6,54.6,0,0,1,4.837-6.282,12.285,12.285,0,0,1,3.853-3.02,8.8,8.8,0,0,1,3.853-.694q4.7.166,8.339,5.614t6.453,16.641l-3-1.238q-2.812-9.266-5.7-13.689T50.886,35" transform="translate(0 -32.197)" fill="#18191a"/>
  </g>
</svg>
