<svg id="Calque_1" data-name="Calque 1" xmlns="http://www.w3.org/2000/svg" width="147.732" height="52.244" viewBox="0 0 147.732 52.244">
  <path id="Контур_4276" data-name="Контур 4276" d="M139.827,47.24v4.427c-3.3.376-5.662.072-7.052-.927s-2.1-2.805-2.1-5.431V37.444h-2.61V32.755h2.615v-3.82l4.88-1.477v5.3h4.273l-1.271,4.689h-3V45.3a1.868,1.868,0,0,0,.489,1.441,2.244,2.244,0,0,0,1.436.515,21.455,21.455,0,0,0,2.342-.015Zm-17.25-2.383,4.237,2.425a9.266,9.266,0,0,1-3.536,3.6,9.98,9.98,0,1,1,.041-17.337,8.782,8.782,0,0,1,3.439,3.557l-4.2,2.455a4.334,4.334,0,0,0-1.724-1.853,5,5,0,0,0-2.574-.679,4.9,4.9,0,0,0-3.6,1.457,5.07,5.07,0,0,0-1.524,3.727,5.148,5.148,0,0,0,1.441,3.706,4.921,4.921,0,0,0,3.6,1.436,5.24,5.24,0,0,0,2.677-.659,4.175,4.175,0,0,0,1.719-1.838Zm-8.53-37.109v5.446a5.559,5.559,0,0,0-4,.911A4.312,4.312,0,0,0,108.308,18v9.044h-4.88V8.123h4.88v3.253a5.029,5.029,0,0,1,2.193-2.7,6.8,6.8,0,0,1,3.547-.927Zm-7.66,34.463a13.058,13.058,0,0,1-.19,2H91.938q.942,3.562,5.333,3.557a4.991,4.991,0,0,0,4.237-1.889l3.933,2.27A9.367,9.367,0,0,1,97.2,52.2a10.183,10.183,0,0,1-7.526-2.836,9.708,9.708,0,0,1-2.847-7.15,9.78,9.78,0,0,1,2.8-7.114,9.53,9.53,0,0,1,7.207-2.872,8.885,8.885,0,0,1,6.846,2.872,9.945,9.945,0,0,1,2.7,7.114ZM91.861,40.435h9.647a4.592,4.592,0,0,0-4.69-3.825,5.148,5.148,0,0,0-3.243,1,4.782,4.782,0,0,0-1.714,2.821Zm8.53-22.85a13.172,13.172,0,0,1-.19,2H85.941q.942,3.578,5.333,3.578a4.994,4.994,0,0,0,4.237-1.894l3.933,2.27a9.347,9.347,0,0,1-8.236,4.051,10.173,10.173,0,0,1-7.526-2.842,9.672,9.672,0,0,1-2.836-7.145,9.781,9.781,0,0,1,2.8-7.114,9.53,9.53,0,0,1,7.207-2.872,8.885,8.885,0,0,1,6.841,2.852,9.94,9.94,0,0,1,2.7,7.114ZM85.854,15.8H95.5a4.592,4.592,0,0,0-4.689-3.82,5.148,5.148,0,0,0-3.253,1A4.782,4.782,0,0,0,85.854,15.8ZM84.031,40.054V51.667h-4.87v-11a3.933,3.933,0,0,0-1.03-2.883,3.66,3.66,0,0,0-2.739-1.03,3.984,3.984,0,0,0-3.047,1.189,4.962,4.962,0,0,0-1.117,3.5V51.657h-4.88v-18.9h4.88V34.87q1.755-2.646,5.652-2.646a6.692,6.692,0,0,1,5.106,2.059,8.023,8.023,0,0,1,2.044,5.771Zm-6-24.668V27.041h-4.88V15.716a3.876,3.876,0,0,0-.834-2.646,2.955,2.955,0,0,0-2.342-.947,3.181,3.181,0,0,0-2.574,1.1,4.763,4.763,0,0,0-.932,3.176v10.64h-4.88V15.716a3.9,3.9,0,0,0-.829-2.646,2.975,2.975,0,0,0-2.347-.947,3.264,3.264,0,0,0-2.574,1.117,4.69,4.69,0,0,0-.968,3.161v10.64H49.969V8.123h4.875v2.008A5.9,5.9,0,0,1,60.105,7.6a5.506,5.506,0,0,1,5.148,2.723A6.338,6.338,0,0,1,70.889,7.6a6.743,6.743,0,0,1,5.184,2.116,8.037,8.037,0,0,1,1.961,5.673ZM62.586,40.054V51.667h-4.88v-11a3.933,3.933,0,0,0-1-2.878,3.681,3.681,0,0,0-2.744-1.03,3.964,3.964,0,0,0-3.042,1.189,4.956,4.956,0,0,0-1.1,3.506V51.667h-4.9V32.755h4.9V34.87q1.74-2.646,5.662-2.646a6.723,6.723,0,0,1,5.106,2.059A8.165,8.165,0,0,1,62.586,40.054ZM47.509,7.747v5.446a5.559,5.559,0,0,0-4.01.911A4.323,4.323,0,0,0,41.759,18v9.044h-4.88V8.123h4.88v3.253a5.029,5.029,0,0,1,2.193-2.7,6.8,6.8,0,0,1,3.557-.927Zm-14.676.376V27.041h-4.88V24.807a7.433,7.433,0,0,1-6.177,2.764,8.663,8.663,0,0,1-6.5-2.862A10.1,10.1,0,0,1,12.592,17.6a10.074,10.074,0,0,1,2.687-7.093A8.607,8.607,0,0,1,21.786,7.6a7.466,7.466,0,0,1,6.177,2.759V8.123Zm-4.88,9.461A5.106,5.106,0,0,0,26.44,13.76a5.029,5.029,0,0,0-3.747-1.513,5.029,5.029,0,0,0-3.758,1.513,5.179,5.179,0,0,0-1.477,3.825,5.3,5.3,0,0,0,1.477,3.856,5.076,5.076,0,0,0,3.742,1.477,5.081,5.081,0,0,0,3.747-1.477,5.225,5.225,0,0,0,1.529-3.856ZM12.443.031v4.69q-4.01-.263-4.01,3.217v.185h4.01l-1.194,4.695H8.433V27.041H3.553V12.818H.83V8.123H3.553V7.938q0-4.046,2.25-6.11T12.443.031Z" transform="translate(-0.408 0)" fill="#fff" opacity="0.2"/>
  <path id="Контур_4277" data-name="Контур 4277" d="M38.041,64.984a9.992,9.992,0,0,0-13.543.546l-.942.942a1.03,1.03,0,0,0,0,1.477l1.879,1.879a1.03,1.03,0,0,0,1.477,0l.947-.952a5.23,5.23,0,0,1,4.633-1.452,5.034,5.034,0,0,1,2.033.829,5.266,5.266,0,0,1,0,8.684,5.117,5.117,0,0,1-2.028.829,5.256,5.256,0,0,1-4.633-1.436l-.952-.963a1.03,1.03,0,0,0-1.477,0l-1.879,1.879a1.03,1.03,0,0,0,0,1.477l.942.942A10,10,0,1,0,38.041,64.984Zm-21.9,10.383a1.03,1.03,0,0,0-1.477,0l-.942.947a5.261,5.261,0,0,1-8.051-.746,5,5,0,0,1-.839-2.059,5.256,5.256,0,0,1,8.89-4.633l.942.947a1.03,1.03,0,0,0,1.477,0l1.884-1.869a1.03,1.03,0,0,0,0-1.477l-.947-.947a10,10,0,1,0,0,14.141l.947-.947a1.03,1.03,0,0,0,0-1.477Z" transform="translate(-0.011 -30.376)" fill="#fff" opacity="0.2"/>
  <rect id="Прямоугольник_60" data-name="Прямоугольник 60" width="5.204" height="5.204" rx="2.602" transform="translate(17.092 42.22) rotate(-45)" fill="#fff"/>
  <path id="Контур_4278" data-name="Контур 4278" d="M38.041,64.984a9.992,9.992,0,0,0-13.543.546l-.942.942a1.03,1.03,0,0,0,0,1.477l1.879,1.879a1.03,1.03,0,0,0,1.477,0l.947-.952a5.23,5.23,0,0,1,4.633-1.452,5.034,5.034,0,0,1,2.033.829,5.266,5.266,0,0,1,0,8.684,5.117,5.117,0,0,1-2.028.829,5.256,5.256,0,0,1-4.633-1.436l-.952-.963a1.03,1.03,0,0,0-1.477,0l-1.879,1.879a1.03,1.03,0,0,0,0,1.477l.942.942A10,10,0,1,0,38.041,64.984Zm-21.9,10.383a1.03,1.03,0,0,0-1.477,0l-.942.947a5.261,5.261,0,0,1-8.051-.746,5,5,0,0,1-.839-2.059,5.256,5.256,0,0,1,8.89-4.633l.942.947a1.03,1.03,0,0,0,1.477,0l1.884-1.869a1.03,1.03,0,0,0,0-1.477l-.947-.947a10,10,0,1,0,0,14.141l.947-.947a1.03,1.03,0,0,0,0-1.477Z" transform="translate(-0.011 -30.376)" fill="#fff" opacity="0.2"/>
  <rect id="Прямоугольник_61" data-name="Прямоугольник 61" width="5.204" height="5.204" rx="2.602" transform="translate(17.092 42.22) rotate(-45)" fill="#00ce7c"/>
  <path id="Контур_4279" data-name="Контур 4279" d="M277.6,60.34A3.269,3.269,0,0,0,274.33,63.6a3.233,3.233,0,0,0,3.248,3.243,3.253,3.253,0,1,0,.021-6.507Zm2.878,3.264a2.872,2.872,0,0,1-2.9,2.9,2.842,2.842,0,0,1-2.872-2.883,2.888,2.888,0,1,1,5.771,0Z" transform="translate(-133.12 -29.279)" fill="#fff" opacity="0.2"/>
  <path id="Контур_4280" data-name="Контур 4280" d="M280.207,65.371a1.071,1.071,0,0,0,.747-1.071,1.03,1.03,0,0,0-.288-.757,1.462,1.462,0,0,0-1.071-.376H278.05v3.47h.767V65.5h.607l.736,1.117h.891Zm-.026-1.03a.526.526,0,0,1-.6.515h-.767v-1.03h.752C279.944,63.826,280.181,64,280.181,64.341Z" transform="translate(-134.925 -30.65)" fill="#fff" opacity="0.2"/>
  <path id="Контур_4281" data-name="Контур 4281" d="M277.6,60.34A3.269,3.269,0,0,0,274.33,63.6a3.233,3.233,0,0,0,3.248,3.243,3.253,3.253,0,1,0,.021-6.507Zm2.878,3.264a2.872,2.872,0,0,1-2.9,2.9,2.842,2.842,0,0,1-2.872-2.883,2.888,2.888,0,1,1,5.771,0Z" transform="translate(-133.12 -29.279)" fill="#fff" opacity="0.2"/>
  <path id="Контур_4282" data-name="Контур 4282" d="M280.207,65.371a1.071,1.071,0,0,0,.747-1.071,1.03,1.03,0,0,0-.288-.757,1.462,1.462,0,0,0-1.071-.376H278.05v3.47h.767V65.5h.607l.736,1.117h.891Zm-.026-1.03a.526.526,0,0,1-.6.515h-.767v-1.03h.752C279.944,63.826,280.181,64,280.181,64.341Z" transform="translate(-134.925 -30.65)" fill="#fff" opacity="0.2"/>
</svg>
