<svg xmlns="http://www.w3.org/2000/svg" width="162.576" height="42.821" viewBox="0 0 162.576 42.821">
  <path id="flipdish-logo" d="M151.661,18.567c.052-.03.069-.038.084-.049a5.6,5.6,0,0,1,3.418-1.674,7.073,7.073,0,0,1,3.986.489,5.6,5.6,0,0,1,3.169,3.977,8.2,8.2,0,0,1,.259,2.085c0,3.151,0,5.725,0,8.873a2.3,2.3,0,1,1-4.6,0c0-2.848,0-5.12,0-7.969a4.234,4.234,0,0,0-.291-1.626,2.641,2.641,0,0,0-2.226-1.705,3.211,3.211,0,0,0-2.418.491,3.275,3.275,0,0,0-1.313,2.23,4.678,4.678,0,0,0-.062.8c0,2.762,0,4.941,0,7.708a2.242,2.242,0,0,1-1.377,2.185,2.309,2.309,0,0,1-3.235-2.067V11.339a2.309,2.309,0,1,1,4.615-.041c-.007,2.21,0,4.792,0,7v.268ZM48.647,17.4v-.265c.015-.855-.009-1.709.057-2.561a5.631,5.631,0,0,1,5.1-5.328,8.042,8.042,0,0,1,2.866.137,2.511,2.511,0,0,1,1.607,1.064,1.752,1.752,0,0,1-1.24,2.741c-.4.055-.822.009-1.237.027a4.675,4.675,0,0,0-.856.084A1.93,1.93,0,0,0,53.3,15.191c-.048.723-.006,1.453-.006,2.208h.226c.827,0,1.654,0,2.485,0a1.962,1.962,0,0,1,.492,3.863,2.529,2.529,0,0,1-.56.072c-.8.005-1.6,0-2.4,0h-.248V32.158a2.272,2.272,0,0,1-1.34,2.2,2.311,2.311,0,0,1-3.29-1.981c-.02-.665-.006-1.329-.006-1.994,0-2.74,0-5.3,0-8.752v-.294H48.4c-.667,0-1.334.009-2,0a1.965,1.965,0,0,1-.461-3.867,2.327,2.327,0,0,1,.522-.067c.645-.009,1.291,0,1.939,0h.249Zm89.107-.695a8.992,8.992,0,0,1,3.3.621,4.633,4.633,0,0,1,2.118,1.858,1.779,1.779,0,0,1-.556,2.37,1.814,1.814,0,0,1-2.358-.055c-.342-.246-.653-.534-.988-.785a2.807,2.807,0,0,0-3.085-.046,1.5,1.5,0,0,0-.642,1.653,1.382,1.382,0,0,0,.952.963c.444.146.906.227,1.359.337.968.24,1.953.431,2.9.731a5.4,5.4,0,0,1,2.785,1.974,5.169,5.169,0,0,1-.019,5.9,5.751,5.751,0,0,1-3.73,2.38,8.88,8.88,0,0,1-5.525-.523,5.87,5.87,0,0,1-2.544-2.165,1.717,1.717,0,0,1,.148-2.143,1.893,1.893,0,0,1,2.892-.13,5.737,5.737,0,0,1,.5.511,3.451,3.451,0,0,0,3,1.087,2.34,2.34,0,0,0,1.178-.413,1.487,1.487,0,0,0-.078-2.5,4.794,4.794,0,0,0-1.439-.491c-1-.25-2.011-.462-3-.771a5.236,5.236,0,0,1-2.8-1.987,5.055,5.055,0,0,1,.139-5.79,6.115,6.115,0,0,1,4.172-2.466c.433-.07.876-.082,1.315-.122m-9.535,9.2v6.346a2.3,2.3,0,0,1-1.761,2.268,2.355,2.355,0,0,1-2.929-2.1q-.009-.126-.009-.252c0-4.634,0-7.966,0-12.6a2.347,2.347,0,0,1,4.685-.249c.03.582.01.531.01,1.115Zm-51.05-.074c0,2.318,0,4.1,0,6.42a2.3,2.3,0,0,1-1.986,2.3,2.357,2.357,0,0,1-2.713-2.184c-.009-.471,0-.942,0-1.412V19.483a2.351,2.351,0,0,1,4.7-.012c0,2.334,0,4.029,0,6.361M123.05,11.767a2.823,2.823,0,1,1,2.812,2.82,2.845,2.845,0,0,1-2.812-2.82M77.642,11.8A2.822,2.822,0,1,1,74.85,8.941,2.811,2.811,0,0,1,77.642,11.8m17.147,13.81c-.006-.122-.013-.325-.032-.528a5.751,5.751,0,0,0-.573-2.156,3.9,3.9,0,0,0-1.694-1.679,4.145,4.145,0,0,0-2.194-.428,3.981,3.981,0,0,0-1.968.646,4.44,4.44,0,0,0-1.69,2.43,6.174,6.174,0,0,0-.228,2.4,5.143,5.143,0,0,0,.57,2,4,4,0,0,0,1.12,1.344,4.081,4.081,0,0,0,3.7.655,3.826,3.826,0,0,0,2.531-2.255,5.927,5.927,0,0,0,.458-2.432m-8.481-6.331A5.386,5.386,0,0,1,88.6,17.265a6.942,6.942,0,0,1,2.15-.527,8.329,8.329,0,0,1,3.54.428,6.863,6.863,0,0,1,2.89,1.976,8.144,8.144,0,0,1,1.551,2.775,10.581,10.581,0,0,1,.5,2.335,13.957,13.957,0,0,1,.026,2.317,9.526,9.526,0,0,1-1.44,4.509,7.68,7.68,0,0,1-4.732,3.386,8.142,8.142,0,0,1-2.458.185,5.134,5.134,0,0,1-2.612-.685,4.936,4.936,0,0,1-1.528-1.38c-.007-.009-.009.149-.029.121q0,.05,0,.1V40.56a2.284,2.284,0,0,1-4.538.345,2.761,2.761,0,0,1-.033-.493V21.138c0-.587,0-1.174,0-1.756a2.167,2.167,0,0,1,.732-1.7,2.087,2.087,0,0,1,2.152-.464,2.155,2.155,0,0,1,1.5,1.634,1.2,1.2,0,0,1,.05.426m20.06,6.64c.009.122.015.325.033.527a5.73,5.73,0,0,0,.569,2.157,3.93,3.93,0,0,0,1.694,1.681,4.141,4.141,0,0,0,2.186.427,3.993,3.993,0,0,0,1.971-.647A4.45,4.45,0,0,0,114.5,27.63a6.171,6.171,0,0,0,.229-2.4,5.1,5.1,0,0,0-.569-2,3.961,3.961,0,0,0-1.118-1.342,4.071,4.071,0,0,0-3.691-.659,3.84,3.84,0,0,0-2.528,2.257,5.994,5.994,0,0,0-.457,2.434m8.466,6.336c-.128.169-.174.288-.372.517a5.445,5.445,0,0,1-1.915,1.494,6.877,6.877,0,0,1-2.148.525,8.286,8.286,0,0,1-3.53-.43,6.81,6.81,0,0,1-2.883-1.973,8.137,8.137,0,0,1-1.555-2.776,10.469,10.469,0,0,1-.488-2.335,13.585,13.585,0,0,1-.03-2.316,9.569,9.569,0,0,1,1.439-4.513,7.638,7.638,0,0,1,4.721-3.387,8.016,8.016,0,0,1,2.456-.186,5.1,5.1,0,0,1,2.606.683,4.893,4.893,0,0,1,1.524,1.381c0,.009.011-.147.027-.121,0-.048.009-.073.009-.1,0-2.655.033-4.628.033-7.28a2.279,2.279,0,0,1,4.529-.346,2.889,2.889,0,0,1,.031.5c0,6.652-.034,12.152-.034,18.8,0,.584,0,1.311,0,1.9a2.167,2.167,0,0,1-.731,1.7,2.076,2.076,0,0,1-2.148.462,2.154,2.154,0,0,1-1.494-1.633,3.074,3.074,0,0,1-.05-.433c0-.054,0-.089,0-.128m-47.5,2.334a5.987,5.987,0,0,1-5.929-6.029V11.523a2.309,2.309,0,1,1,4.617,0V28.555a1.325,1.325,0,0,0,1.312,1.338,2.346,2.346,0,0,1,0,4.691M38.429,17.264h-.48c-.017-.178-.015-.36-.037-.536a13.85,13.85,0,0,0-.368-1.888,14.665,14.665,0,0,0-4.478-7.273,14.548,14.548,0,0,0-7.273-3.544,2.809,2.809,0,1,0-5.341-1.186A2.868,2.868,0,0,0,20.7,4a13.61,13.61,0,0,0-2.151.554,14.477,14.477,0,0,0-4.839,2.851H2.041a2.064,2.064,0,0,0,0,4.127h8.394c-.146.265-.289.531-.418.8H4.941a2.064,2.064,0,0,0,0,4.128H8.8c-.039.264-.079.528-.1.8H7.753a2.064,2.064,0,0,0,0,4.128H19.019l-.062,2.286L12.11,26.5a2.058,2.058,0,0,0-1.161,1.247,2.084,2.084,0,0,0,.17,1.705L12.9,32.529a2.033,2.033,0,0,0,1.763,1.024,2.008,2.008,0,0,0,1.028-.283,2.077,2.077,0,0,0,.732-2.822l-.593-1.028,5.9-2.43A2.059,2.059,0,0,0,23,25.135l.1-3.743h.745l2.377,4.878L23.05,31.43A2.09,2.09,0,0,0,23,33.523a2.038,2.038,0,0,0,1.783,1.062h3.772a2.065,2.065,0,0,0,0-4.129h-.1l1.835-2.98a2.1,2.1,0,0,0,.094-2.006l-1.989-4.079H38.429a2.064,2.064,0,0,0,0-4.128M34.1,16.15a1.247,1.247,0,0,1-.021.212.718.718,0,0,1-.015.075,1.072,1.072,0,0,1-.034.113,1.173,1.173,0,0,1-.474.613,1.016,1.016,0,0,1-.135.077c-.013.006-.023.014-.034.019s-.009.005-.014.006a1.183,1.183,0,0,1-.982-.041,1.29,1.29,0,0,1-.128-.068l-.025-.015a1.152,1.152,0,0,1-.531-.86,8.566,8.566,0,0,0-.151-1.022,7.224,7.224,0,0,0-1.1-2.47,7.1,7.1,0,0,0-1.873-1.882,5.41,5.41,0,0,0-1.649-.763,1.216,1.216,0,1,1,.6-2.358,7.551,7.551,0,0,1,2.24,1,9.663,9.663,0,0,1,3.206,3.5,9.521,9.521,0,0,1,.874,2.213,9.305,9.305,0,0,1,.243,1.473c.005.058.006.114.006.17v.009" fill="#18191a" fill-rule="evenodd"/>
</svg>
