<svg xmlns="http://www.w3.org/2000/svg" width="153" height="60" viewBox="0 0 153 60">
  <g id="Сгруппировать_49" data-name="Сгруппировать 49" transform="translate(1903.427 1331.062)">
    <g id="Сгруппировать_7" data-name="Сгруппировать 7" transform="translate(-1879.768 -1298.657)">
      <g id="Сгруппировать_1" data-name="Сгруппировать 1" transform="translate(0 0.096)">
        <path id="Контур_1" data-name="Контур 1" d="M-1762.988-1165.046q-8.3-.011-16.6,0c-1.915,0-2.232.316-2.241,2.294-.016,3.821-.005,7.642-.005,11.464,0,3.868-.009,7.736,0,11.6.006,1.9.227,2.115,2.042,2.127,1.106.007,2.214.009,3.32,0,1.741-.015,2.067-.334,2.091-2.151.025-1.91.067-3.823-.012-5.731-.053-1.3.459-1.711,1.7-1.674,2.349.07,4.7-.009,7.054.028,1.3.02,1.855-.578,1.814-1.862-.03-.931-.027-1.865,0-2.8.035-1.3-.578-1.852-1.855-1.83-2.12.037-4.242.009-6.363.008-2.355,0-2.355,0-2.33-2.395.019-1.7.093-1.786,1.831-1.791,3.181-.008,6.363.009,9.544-.009,1.836-.01,2.208-.4,2.224-2.206.009-.932.006-1.864,0-2.8C-1760.781-1164.78-1761.026-1165.043-1762.988-1165.046Z" transform="translate(1781.837 1165.051)" fill="#f3f3f3"/>
      </g>
      <g id="Сгруппировать_2" data-name="Сгруппировать 2" transform="translate(44.549 0)">
        <path id="Контур_2" data-name="Контур 2" d="M-1547.444-1165.539q-1.862.006-3.723,0c-1.117-.008-1.72.491-1.719,1.67q.008,12.124,0,24.248c0,1.179.6,1.677,1.72,1.67,1.2-.008,2.391.025,3.585-.007,1.6-.045,1.919-.379,1.925-2.012.013-3.9,0-7.8,0-11.706,0-3.995-.027-7.99.015-11.984C-1545.625-1164.98-1546.2-1165.543-1547.444-1165.539Z" transform="translate(1552.886 1165.543)" fill="#f3f3f3"/>
      </g>
      <g id="Сгруппировать_3" data-name="Сгруппировать 3" transform="translate(80.119 0)">
        <path id="Контур_3" data-name="Контур 3" d="M-1348.792-1165.53c-1.249,0-2.5-.021-3.749,0-1.6.024-1.92.355-1.933,2.023-.018,2.245-.028,4.49,0,6.735.012.946-.352,1.363-1.309,1.346-1.851-.034-3.7-.047-5.553.006-1.081.031-1.485-.4-1.461-1.485.048-2.2.024-4.4.007-6.595-.013-1.726-.312-2.013-2.054-2.033q-1.666-.019-3.332,0c-1.694.021-1.883.212-1.887,1.979q-.012,5.894,0,11.787c0,4.023.031,8.046-.019,12.068-.015,1.247.376,1.821,1.671,1.745,1.246-.073,2.5-.006,3.748-.018,1.649-.016,1.864-.218,1.876-1.847.017-2.245.044-4.491-.01-6.735-.027-1.131.351-1.622,1.516-1.58,1.757.063,3.518.061,5.275,0,1.138-.039,1.572.393,1.543,1.552-.056,2.291,0,4.584-.017,6.875-.011,1.234.514,1.8,1.764,1.747,1.34-.054,2.684-.036,4.026-.008,1.06.022,1.5-.469,1.495-1.527q-.02-12.209,0-24.417C-1347.189-1165.053-1347.718-1165.531-1348.792-1165.53Z" transform="translate(1370.083 1165.544)" fill="#f3f3f3"/>
      </g>
      <g id="Сгруппировать_4" data-name="Сгруппировать 4" transform="translate(104.8 0.09)">
        <path id="Контур_4" data-name="Контур 4" d="M-1222.381-1163.369c.057-1.282-.509-1.733-1.737-1.713-2.905.047-5.812.015-8.718.016-2.952,0-5.9.029-8.856-.014-1.128-.017-1.595.422-1.55,1.566.054,1.35.026,2.7.014,4.055a1.217,1.217,0,0,0,1.346,1.4c1.245.02,2.493.073,3.735.009,1.2-.062,1.643.412,1.622,1.625-.053,3.076-.018,6.154-.017,9.23,0,2.564-.023,5.129.017,7.692.024,1.53.419,1.889,1.91,1.92.922.019,1.845.006,2.767.005,2.584,0,2.762-.174,2.764-2.757,0-5.361.025-10.723-.015-16.084-.009-1.205.41-1.694,1.615-1.632,1.242.065,2.49.011,3.735-.008a1.217,1.217,0,0,0,1.351-1.391C-1222.406-1160.759-1222.438-1162.066-1222.381-1163.369Z" transform="translate(1243.245 1165.082)" fill="#f3f3f3"/>
      </g>
      <g id="Сгруппировать_5" data-name="Сгруппировать 5" transform="translate(23.616 0.001)">
        <path id="Контур_5" data-name="Контур 5" d="M-1642.154-1143.507c.036-1.184-.477-1.691-1.645-1.677-2.391.03-4.781.009-7.173.005-2.059,0-2.064-.006-2.065-2.1q0-7.876,0-15.753c0-2.125-.378-2.489-2.515-2.5-.966-.006-1.932-.018-2.9.007-1.689.044-1.994.353-2,2.079-.011,3.9,0,7.807,0,11.71,0,3.95.025,7.9-.014,11.849-.012,1.264.441,1.941,1.739,1.94q7.517-.006,15.034-.005c1.081,0,1.579-.537,1.542-1.654C-1642.2-1140.9-1642.195-1142.207-1642.154-1143.507Z" transform="translate(1660.468 1165.538)" fill="#f3f3f3"/>
      </g>
      <g id="Сгруппировать_6" data-name="Сгруппировать 6" transform="translate(54.224 0)">
        <path id="Контур_6" data-name="Контур 6" d="M-1479.6-1151.887v-1.851a1.237,1.237,0,0,0-1.2-1.27h-9.728a1.237,1.237,0,0,0-1.2,1.27v4.89a1.237,1.237,0,0,0,1.2,1.27h3.424c0,.4,0,.81,0,1.215,0,.936-.432,1.364-1.377,1.355-1.788-.017-3.58-.055-5.365.018-1.265.052-1.77-.378-1.744-1.686.067-3.275.075-6.553,0-9.827-.033-1.394.53-1.759,1.833-1.736,3.53.063,7.06.031,10.591.015,1.606-.007,2.207-.59,2.267-2.192.039-1.028.044-2.061-.008-3.088-.075-1.48-.625-2.008-2.115-2.022-2.542-.024-5.084-.006-7.626-.007-2.448,0-4.9-.022-7.343.005a5.025,5.025,0,0,0-5.159,5.041l0,17.83a4.725,4.725,0,0,0,4.79,4.7q6.919.033,13.839,0a4.453,4.453,0,0,0,4.683-3.648c.731-3.372.33-6.8.256-10.205C-1479.6-1151.839-1479.6-1151.861-1479.6-1151.887Z" transform="translate(1503.164 1165.543)" fill="#f3f3f3"/>
      </g>
    </g>
    <g id="Сгруппировать_12" data-name="Сгруппировать 12" transform="translate(-1903.093 -1297.964)">
      <g id="Сгруппировать_9" data-name="Сгруппировать 9" transform="translate(0 0)">
        <g id="Сгруппировать_8" data-name="Сгруппировать 8">
          <path id="Контур_7" data-name="Контур 7" d="M-1894.569-1161.987q-2.47-.032-4.941,0a2,2,0,0,0-2.182,2.184c-.021,2.284-.028,4.575,0,6.858a1.966,1.966,0,0,0,2.133,2.17q2.524.032,5.046,0a2.021,2.021,0,0,0,2.14-2.227c.007-1.139,0-2.27,0-3.408,0-1.1.007-2.191,0-3.287A2.049,2.049,0,0,0-1894.569-1161.987Zm-.746,7.762c.007.356-.134.519-.5.512-.781-.014-1.57-.007-2.351,0-.359,0-.514-.157-.506-.512v-4.311c-.007-.356.147-.513.506-.513.781.007,1.57.007,2.351,0,.366-.007.507.157.5.513-.014.718-.007,1.437-.007,2.156S-1895.33-1154.943-1895.315-1154.225Z" transform="translate(1901.711 1162.003)" fill="#f3f3f3"/>
        </g>
      </g>
      <g id="Сгруппировать_11" data-name="Сгруппировать 11" transform="translate(10.977 0.044)">
        <g id="Сгруппировать_10" data-name="Сгруппировать 10">
          <path id="Контур_8" data-name="Контур 8" d="M-1835.874-1151.382c-.373-.676-.753-1.352-1.154-2.006-.2-.334-.218-.541.148-.775a1.8,1.8,0,0,0,.845-1.629c-.021-1.359,0-2.718-.014-4.077a1.827,1.827,0,0,0-1.879-1.892c-2.224-.014-4.448.007-6.672-.014-.549-.007-.7.221-.7.74.021,1.587.007,3.173.007,4.76,0,1.643.015,3.287-.007,4.93,0,.505.176.74.69.725s1.006,0,1.514-.007c.612-.014.746-.149.753-.79s0-1.281.007-1.921c0-.185-.028-.384.169-.512a1.787,1.787,0,0,1,1.929.512c.387.69.774,1.38,1.147,2.078a1.067,1.067,0,0,0,1.083.64c.556-.028,1.12,0,1.682-.007C-1835.69-1150.642-1835.571-1150.835-1835.874-1151.382Zm-3.118-5.727c.007.349-.169.47-.486.462-.45-.007-.894,0-1.344,0-.408,0-.823-.007-1.232,0-.317.007-.493-.107-.486-.455q.021-.736,0-1.473c0-.313.155-.434.451-.434h2.625c.331,0,.479.163.472.491C-1838.991-1158.049-1839-1157.579-1838.991-1157.109Z" transform="translate(1845.298 1161.777)" fill="#f3f3f3"/>
        </g>
      </g>
    </g>
    <g id="Сгруппировать_18" data-name="Сгруппировать 18" transform="translate(-1903.427 -1331.062)">
      <g id="Сгруппировать_13" data-name="Сгруппировать 13" transform="translate(33.846 0.088)">
        <path id="Контур_9" data-name="Контур 9" d="M-1706.183-1316.9v-2.052a1.222,1.222,0,0,0-1.187-1.254h-9.608a1.222,1.222,0,0,0-1.187,1.254v4.829a1.222,1.222,0,0,0,1.187,1.254h3.382c0,.5-.005,1.009,0,1.514,0,.939-.427,1.37-1.36,1.36-1.766-.017-3.536-.055-5.3.018-1.25.052-1.749-.38-1.722-1.693.066-3.288.074-6.579,0-9.866-.033-1.4.524-1.767,1.811-1.743,3.486.063,6.974.031,10.46.015,1.586-.008,2.18-.593,2.239-2.2.038-1.032.043-2.069-.008-3.1-.073-1.487-.618-2.016-2.089-2.03-2.51-.024-5.021-.007-7.532-.007-2.417,0-4.835-.022-7.253.005a5,5,0,0,0-5.095,5.062c-.053,5.967-.044,11.935,0,17.9a4.7,4.7,0,0,0,4.731,4.714q6.834.033,13.669,0a4.414,4.414,0,0,0,4.626-3.663c.722-3.385.325-6.828.253-10.247C-1706.176-1316.853-1706.182-1316.875-1706.183-1316.9Z" transform="translate(1729.487 1330.613)" fill="#f3f3f3"/>
      </g>
      <g id="Сгруппировать_14" data-name="Сгруппировать 14" transform="translate(84.85 0.046)">
        <path id="Контур_10" data-name="Контур 10" d="M-1446.34-1329.1c.057-1.292-.513-1.745-1.75-1.725-2.927.047-5.856.015-8.784.016-2.975,0-5.949.029-8.923-.014-1.137-.017-1.607.425-1.562,1.578.054,1.36.026,2.724.015,4.086a1.225,1.225,0,0,0,1.356,1.406c1.254.02,2.512.074,3.763.009,1.207-.062,1.655.415,1.634,1.637-.053,3.1-.017,6.2-.016,9.3,0,2.583-.023,5.167.017,7.75.024,1.542.422,1.9,1.925,1.934.929.019,1.859.006,2.789.005,2.6,0,2.782-.175,2.785-2.778,0-5.4.025-10.8-.015-16.205-.009-1.215.413-1.707,1.627-1.644,1.251.066,2.509.011,3.763-.008a1.227,1.227,0,0,0,1.361-1.4C-1446.366-1326.472-1446.4-1327.789-1446.34-1329.1Z" transform="translate(1467.362 1330.828)" fill="#f3f3f3"/>
      </g>
      <g id="Сгруппировать_15" data-name="Сгруппировать 15" transform="translate(23.873 0)">
        <path id="Контур_11" data-name="Контур 11" d="M-1775.253-1331.057q-1.875.006-3.751,0c-1.125-.008-1.733.5-1.732,1.683q.008,12.215,0,24.429c0,1.188.608,1.69,1.733,1.682,1.2-.008,2.408.026,3.611-.008,1.611-.045,1.934-.381,1.939-2.026.013-3.931,0-7.862,0-11.794,0-4.025-.027-8.05.015-12.074C-1773.42-1330.494-1774-1331.062-1775.253-1331.057Z" transform="translate(1780.736 1331.062)" fill="#f3f3f3"/>
      </g>
      <g id="Сгруппировать_16" data-name="Сгруппировать 16" transform="translate(59.976 0.041)">
        <path id="Контур_12" data-name="Контур 12" d="M-1573.807-1330.836c-1.255,0-2.511-.021-3.766,0-1.607.024-1.928.357-1.942,2.032-.018,2.255-.028,4.511,0,6.766.012.95-.354,1.37-1.315,1.352-1.859-.034-3.72-.047-5.579.006-1.086.031-1.492-.4-1.468-1.492.049-2.207.025-4.417.008-6.625-.013-1.734-.313-2.022-2.064-2.042q-1.674-.019-3.348,0c-1.7.021-1.892.213-1.9,1.988-.008,3.947,0,7.894,0,11.841,0,4.041.032,8.083-.018,12.123-.016,1.253.377,1.829,1.678,1.753,1.251-.073,2.51-.005,3.765-.018,1.656-.016,1.872-.219,1.885-1.855.017-2.255.045-4.512-.01-6.766-.027-1.136.353-1.629,1.523-1.587,1.764.063,3.534.061,5.3,0,1.143-.039,1.579.4,1.551,1.56-.056,2.3,0,4.6-.017,6.907-.011,1.24.516,1.806,1.772,1.755,1.346-.055,2.7-.036,4.044-.009,1.065.022,1.5-.471,1.5-1.534q-.02-12.265,0-24.529C-1572.2-1330.357-1572.728-1330.838-1573.807-1330.836Z" transform="translate(1595.196 1330.85)" fill="#f3f3f3"/>
      </g>
      <g id="Сгруппировать_17" data-name="Сгруппировать 17" transform="translate(0 0)">
        <path id="Контур_13" data-name="Контур 13" d="M-1884.441-1331.056q-8.36-.011-16.72,0c-1.929,0-2.249.318-2.257,2.31-.017,3.849-.005,7.7-.005,11.548,0,3.9-.009,7.894,0,11.79.006,1.915.228,2.13,2.057,2.143,1.114.007,2.229.01,3.344,0,1.754-.016,2.082-.337,2.106-2.167.026-1.924.067-3.952-.011-5.874-.054-1.313.462-1.724,1.714-1.687,2.367.071,4.737-.009,7.106.028,1.313.021,1.869-.582,1.827-1.875-.031-.938-.027-1.878,0-2.816.035-1.313-.583-1.866-1.869-1.844-2.136.037-4.273.009-6.409.008-2.373,0-2.373,0-2.347-2.413.018-1.716.093-1.8,1.844-1.8,3.2-.008,6.41.009,9.614-.009,1.85-.01,2.225-.4,2.241-2.222.009-.939.007-1.878,0-2.816C-1882.217-1330.788-1882.464-1331.053-1884.441-1331.056Z" transform="translate(1903.427 1331.061)" fill="#f3f3f3"/>
      </g>
    </g>
    <g id="Сгруппировать_19" data-name="Сгруппировать 19" transform="translate(-1790.838 -1330.974)">
      <path id="Контур_14" data-name="Контур 14" d="M-1296.758-1300.068h-3.961a2.218,2.218,0,0,1-2.2-2.226,2.218,2.218,0,0,1,2.2-2.226h8.631a.569.569,0,0,0,.563-.574.569.569,0,0,0-.563-.574h-22.154a2.107,2.107,0,0,1-2.095-2.114,2.107,2.107,0,0,1,2.095-2.115h24.815a3.423,3.423,0,0,0,3.393-3.42l.034-6.839a.5.5,0,0,0-.145-.357.48.48,0,0,0-.343-.144.5.5,0,0,0-.49.495l-.044,6.762a2.3,2.3,0,0,1-2.28,2.287,2.3,2.3,0,0,1-2.29-2.3v-12.363a.494.494,0,0,0-.488-.5.494.494,0,0,0-.488.5v12.363a2.294,2.294,0,0,1-2.28,2.3,2.294,2.294,0,0,1-2.28-2.3V-1328.5a.494.494,0,0,0-.488-.5.494.494,0,0,0-.488.5v15.083a2.294,2.294,0,0,1-2.28,2.3,2.294,2.294,0,0,1-2.28-2.3V-1328.5a.494.494,0,0,0-.488-.5.494.494,0,0,0-.488.5v15.083a2.294,2.294,0,0,1-2.28,2.3,2.294,2.294,0,0,1-2.28-2.3v-14.119a.494.494,0,0,0-.488-.5.494.494,0,0,0-.488.5v14.119a2.294,2.294,0,0,1-2.28,2.3,2.294,2.294,0,0,1-2.28-2.3v-12.363a.494.494,0,0,0-.488-.5.494.494,0,0,0-.488.5v12.363a2.294,2.294,0,0,1-2.28,2.3,2.294,2.294,0,0,1-2.28-2.3v-9.161a.494.494,0,0,0-.488-.5.494.494,0,0,0-.488.5v9.161a2.294,2.294,0,0,1-2.28,2.3,2.294,2.294,0,0,1-2.28-2.3v-4.781a.806.806,0,0,1,.8-.808.806.806,0,0,1,.8.808v4.781a.681.681,0,0,0,.673.686.681.681,0,0,0,.673-.686v-9.161a2.107,2.107,0,0,1,2.094-2.114,2.107,2.107,0,0,1,2.094,2.114v9.161a.681.681,0,0,0,.674.686.681.681,0,0,0,.673-.686v-12.363a2.107,2.107,0,0,1,2.094-2.115,2.107,2.107,0,0,1,2.094,2.115v12.363a.681.681,0,0,0,.674.686.681.681,0,0,0,.674-.686v-14.119a2.107,2.107,0,0,1,2.094-2.115,2.107,2.107,0,0,1,2.094,2.115v14.119a.681.681,0,0,0,.674.686.681.681,0,0,0,.673-.686V-1328.5a2.107,2.107,0,0,1,2.094-2.114,2.107,2.107,0,0,1,2.094,2.114v15.083a.681.681,0,0,0,.673.686.681.681,0,0,0,.674-.686V-1328.5a2.107,2.107,0,0,1,2.094-2.114,2.107,2.107,0,0,1,2.094,2.114v15.083a.681.681,0,0,0,.674.686.681.681,0,0,0,.674-.686v-12.363a2.107,2.107,0,0,1,2.094-2.115,2.107,2.107,0,0,1,2.094,2.115v12.363a.681.681,0,0,0,.673.686.684.684,0,0,0,.683-.681l.044-6.763a2.109,2.109,0,0,1,2.094-2.1,2.071,2.071,0,0,1,1.484.62,2.11,2.11,0,0,1,.612,1.5l-.034,6.839a5.038,5.038,0,0,1-5,5.029h-24.815a.494.494,0,0,0-.488.5.494.494,0,0,0,.488.5h22.154a2.183,2.183,0,0,1,2.169,2.19,2.183,2.183,0,0,1-2.169,2.19h-8.631a.605.605,0,0,0-.6.61.6.6,0,0,0,.6.61h3.961a.806.806,0,0,1,.8.808A.805.805,0,0,1-1296.758-1300.068Z" transform="translate(1324.803 1330.613)" fill="#f3f3f3"/>
    </g>
  </g>
</svg>
