<svg id="Сгруппировать_44" data-name="Сгруппировать 44" xmlns="http://www.w3.org/2000/svg" width="131.491" height="32.116" viewBox="0 0 131.491 32.116">
  <path id="Контур_4283" data-name="Контур 4283" d="M133.234,109.043H122.184a.493.493,0,0,0-.516.467v4.879a.494.494,0,0,0,.516.467h4.31v6.062a14.382,14.382,0,0,1-3.643.3c-3.157,0-7.567-1.042-7.567-9.8s4.592-9.913,8.9-9.913a19.16,19.16,0,0,1,6.363.879.508.508,0,0,0,.619-.458L132.4,97.21a.42.42,0,0,0-.2-.364c-.416-.268-2.95-1.549-9.353-1.549-7.377,0-14.943,2.835-14.943,16.46s8.663,15.656,15.963,15.656a19.355,19.355,0,0,0,9.711-2.333.383.383,0,0,0,.168-.353V109.509A.493.493,0,0,0,133.234,109.043Z" transform="translate(-107.908 -95.297)" fill="#0e0d0d"/>
  <path id="Контур_4284" data-name="Контур 4284" d="M291.185,99.3a.491.491,0,0,0-.513-.469h-6.221a.494.494,0,0,0-.515.469l0,10.859h-9.7V99.3a.492.492,0,0,0-.513-.469h-6.221a.493.493,0,0,0-.514.469v29.4a.494.494,0,0,0,.514.47h6.221a.493.493,0,0,0,.513-.47V116.121h9.7L283.92,128.7a.5.5,0,0,0,.516.47h6.236a.493.493,0,0,0,.513-.47Z" transform="translate(-208.915 -97.662)" fill="#0e0d0d"/>
  <g id="Сгруппировать_43" data-name="Сгруппировать 43" transform="translate(29.043 1.833)">
    <g id="Сгруппировать_42" data-name="Сгруппировать 42" transform="translate(0 0)">
      <path id="Контур_4285" data-name="Контур 4285" d="M195.486,104.513a4.028,4.028,0,1,0-4.012,3.661A3.845,3.845,0,0,0,195.486,104.513Z" transform="translate(-187.463 -100.855)" fill="#0e0d0d"/>
      <path id="Контур_4286" data-name="Контур 4286" d="M195.6,142.07V128.5a.494.494,0,0,0-.515-.469h-6.2a.562.562,0,0,0-.539.523V148c0,.571.394.742.9.742h5.588c.613,0,.763-.272.763-.751Z" transform="translate(-188.024 -119.069)" fill="#0e0d0d"/>
    </g>
  </g>
  <path id="Контур_4287" data-name="Контур 4287" d="M362.217,128.163h-6.174a.494.494,0,0,0-.514.47V143.05a7.475,7.475,0,0,1-3.795,1.036c-2.226,0-2.817-.912-2.817-2.881V128.633a.494.494,0,0,0-.513-.47h-6.266a.5.5,0,0,0-.514.47v13.525c0,5.847,3.608,7.278,8.572,7.278a15.514,15.514,0,0,0,7.356-2.032,10.8,10.8,0,0,0,.227,1.2.553.553,0,0,0,.454.255l3.986-.016a.5.5,0,0,0,.514-.47l0-19.737A.5.5,0,0,0,362.217,128.163Z" transform="translate(-256.302 -117.327)" fill="#0e0d0d"/>
  <path id="Контур_4288" data-name="Контур 4288" d="M421.369,107.838a12.513,12.513,0,0,0-5.891,1.413V99.3a.492.492,0,0,0-.513-.469h-6.239a.493.493,0,0,0-.514.469v29.4a.494.494,0,0,0,.515.47h4.329a.526.526,0,0,0,.452-.25,8.38,8.38,0,0,0,.263-1.356,11.863,11.863,0,0,0,7.381,2.183c5.67,0,8.922-2.6,8.922-11.66S424.878,107.838,421.369,107.838ZM418.934,124.4a7.961,7.961,0,0,1-3.594-.936v-9.311a8.816,8.816,0,0,1,3.191-.935c2.223-.18,4.365.427,4.365,5.217C422.9,123.489,421.93,124.486,418.934,124.4Z" transform="translate(-298.581 -97.662)" fill="#0e0d0d"/>
  <path id="Контур_4289" data-name="Контур 4289" d="M230.107,116.058H225.44l-.007-5.568c0-.211-.12-.316-.39-.316h-6.359c-.248,0-.38.1-.38.313v5.754s-3.187.7-3.4.751a.476.476,0,0,0-.372.448v3.616a.493.493,0,0,0,.514.47H218.3v8.7c0,6.461,5.018,7.1,8.4,7.1a15.579,15.579,0,0,0,3.7-.551.434.434,0,0,0,.292-.422l.005-3.978a.5.5,0,0,0-.516-.469c-.272,0-.967.1-1.684.1-2.292,0-3.069-.963-3.069-2.209s0-8.267,0-8.267h4.667a.493.493,0,0,0,.515-.47v-4.529A.493.493,0,0,0,230.107,116.058Z" transform="translate(-175.605 -105.269)" fill="#0e0d0d"/>
</svg>
