<svg id="linkedin" xmlns="http://www.w3.org/2000/svg" width="161.649" height="42.821" viewBox="0 0 161.649 42.821">
  <path id="Контур_4290" data-name="Контур 4290" d="M213.882,4.85a3.108,3.108,0,0,1,3.145-3.067h36.258a3.107,3.107,0,0,1,3.145,3.067V41.537a3.106,3.106,0,0,1-3.145,3.067H217.027a3.107,3.107,0,0,1-3.145-3.066V4.85Z" transform="translate(-94.78 -1.783)" fill="#18191a"/>
  <path id="Контур_4291" data-name="Контур 4291" d="M1.785,43.282H19.541V37.451H8.212V15.209H1.785Zm26.746,0V23.946H22.1V43.282ZM25.318,21.306a3.351,3.351,0,1,0,.043-6.681,3.35,3.35,0,1,0-.085,6.681Zm6.2,21.975h6.426v-10.8a4.385,4.385,0,0,1,.212-1.567,3.516,3.516,0,0,1,3.3-2.351c2.326,0,3.256,1.774,3.256,4.371V43.281h6.425V32.195c0-5.939-3.17-8.7-7.4-8.7A6.4,6.4,0,0,0,37.9,26.75h.043v-2.8H31.514C31.6,25.76,31.514,43.282,31.514,43.282ZM60.2,15.209H53.77V43.282H60.2V37.013L61.8,34.99l5.031,8.291H74.74l-8.455-12,7.4-8.166H65.947s-5.285,7.305-5.75,8.172Z" transform="translate(-1.785 -7.413)" fill="#18191a"/>
  <path id="Контур_4292" data-name="Контур 4292" d="M147.121,35.672a15.671,15.671,0,0,0,.212-2.526c0-5-2.537-10.073-9.217-10.073-7.145,0-10.443,5.651-10.443,10.777,0,6.339,4.017,10.3,11.034,10.3a19.979,19.979,0,0,0,7.484-1.278l-.846-4.245a17.489,17.489,0,0,1-5.707.863c-3,0-5.622-1.233-5.834-3.859l13.317.04Zm-13.359-4.348c.169-1.65,1.269-4.085,4.017-4.085,2.917,0,3.594,2.6,3.594,4.085h-7.61Zm29.433-15.659v9.718h-.085c-.93-1.36-2.875-2.268-5.453-2.268-4.947,0-9.3,3.959-9.26,10.723,0,6.27,3.932,10.353,8.836,10.353a7.269,7.269,0,0,0,6.469-3.383h.126l.254,2.929h5.707c-.084-1.361-.17-3.712-.17-6.022V15.664h-6.426Zm0,19.122a7.134,7.134,0,0,1-.127,1.4,3.781,3.781,0,0,1-3.762,3.011c-2.663,0-4.4-2.144-4.4-5.526,0-3.175,1.481-5.733,4.44-5.733a3.8,3.8,0,0,1,3.762,3.051,5.354,5.354,0,0,1,.084,1.156v2.64Z" transform="translate(-56.981 -7.868)" fill="#18191a"/>
  <path id="Контур_4293" data-name="Контур 4293" d="M231.536,43.24V23.9H225.11V43.24h6.427Zm-3.212-21.975a3.58,3.58,0,1,0-.042,0h.042Zm6.769,21.975h6.426v-10.8a4.4,4.4,0,0,1,.212-1.568,3.517,3.517,0,0,1,3.3-2.351c2.325,0,3.255,1.773,3.255,4.373V43.24h6.426V32.153c0-5.939-3.17-8.7-7.4-8.7a6.4,6.4,0,0,0-5.834,3.257h.043V23.9h-6.426c.084,1.814,0,19.336,0,19.336Z" transform="translate(-99.537 -7.395)" fill="#fff"/>
</svg>
