<svg xmlns="http://www.w3.org/2000/svg" width="883.781" height="709.857" viewBox="0 0 883.781 709.857">
  <path id="Контур_14" data-name="Контур 14" d="M613.336,709.857H526.719c-26.577,0-48.212-23.2-48.212-51.724S500.142,606.4,526.719,606.4H715.492c6.789,0,12.311-5.989,12.311-13.344s-5.522-13.344-12.311-13.344h-484.5c-25.263,0-45.812-22.046-45.812-49.136s20.548-49.146,45.812-49.146h542.7c40.714,0,74.011-35.654,74.212-79.489L848.649,243a12,12,0,0,0-3.161-8.285,10.181,10.181,0,0,0-7.506-3.352c-5.894,0-10.677,5.157-10.717,11.5l-.96,157.161c-.178,29.3-22.544,53.152-49.855,53.152-27.706,0-50.075-24-50.075-53.509V112.356c0-6.382-4.787-11.577-10.671-11.577s-10.671,5.2-10.671,11.577V399.664c0,29.508-22.37,53.509-49.864,53.509s-49.861-24-49.861-53.509V49.139c0-6.386-4.787-11.585-10.665-11.585s-10.673,5.2-10.673,11.585V399.664c0,29.508-22.366,53.509-49.861,53.509s-49.857-24-49.857-53.509V49.139c0-6.386-4.788-11.585-10.675-11.585s-10.667,5.2-10.667,11.585V399.664c0,29.508-22.368,53.509-49.861,53.509s-49.858-24-49.858-53.509V71.547c0-6.385-4.787-11.577-10.674-11.577S341.84,65.162,341.84,71.547V399.664c0,29.508-22.363,53.509-49.855,53.509s-49.861-24-49.861-53.509V112.356c0-6.382-4.784-11.577-10.674-11.577s-10.674,5.2-10.674,11.577V399.664c0,29.508-22.363,53.509-49.852,53.509s-49.861-24-49.861-53.509V186.774c0-6.379-4.788-11.571-10.674-11.571s-10.671,5.192-10.671,11.571V399.664c0,29.508-22.369,53.509-49.864,53.509S0,429.172,0,399.664V288.549c0-10.369,7.862-18.777,17.565-18.777s17.566,8.408,17.566,18.777V399.664c0,8.792,6.6,15.947,14.724,15.947s14.73-7.155,14.73-15.947V186.774c0-27.091,20.551-49.133,45.8-49.133s45.8,22.042,45.8,49.133V399.664c0,8.792,6.6,15.947,14.73,15.947,8.11,0,14.722-7.155,14.722-15.947V112.356c0-27.093,20.547-49.142,45.8-49.142s45.8,22.049,45.8,49.142V399.664c0,8.792,6.611,15.947,14.734,15.947s14.731-7.155,14.731-15.947V71.547c0-27.094,20.541-49.142,45.8-49.142s45.8,22.048,45.8,49.142V399.664c0,8.792,6.608,15.947,14.727,15.947s14.731-7.155,14.731-15.947V49.139c0-27.1,20.544-49.139,45.8-49.139s45.8,22.044,45.8,49.139V399.664c0,8.792,6.6,15.947,14.728,15.947s14.73-7.155,14.73-15.947V49.139c0-27.1,20.549-49.139,45.8-49.139s45.8,22.044,45.8,49.139V399.664c0,8.792,6.612,15.947,14.731,15.947s14.736-7.155,14.736-15.947V112.356c0-27.093,20.539-49.142,45.8-49.142s45.8,22.049,45.8,49.142V399.664c0,8.792,6.611,15.947,14.731,15.947,8.277,0,14.884-7.106,14.937-15.836l.962-157.163C792.3,215.7,812.84,193.8,837.942,193.8a44,44,0,0,1,32.451,14.414,50.674,50.674,0,0,1,13.388,34.973l-.751,158.941c-.3,64.439-49.354,116.863-109.342,116.863h-542.7c-5.887,0-10.681,5.192-10.681,11.58s4.794,11.574,10.681,11.574h484.5c26.155,0,47.447,22.836,47.447,50.905s-21.292,50.906-47.447,50.906H526.719c-7.211,0-13.082,6.361-13.082,14.174s5.871,14.173,13.082,14.173h86.618c9.707,0,17.569,8.408,17.569,18.778S623.043,709.857,613.336,709.857Z" transform="translate(0 0)" fill="#f3f3f3"/>
</svg>
