<svg xmlns="http://www.w3.org/2000/svg" width="1518" height="709.857" viewBox="0 0 1518 709.857">
  <g id="Сгруппировать_48" data-name="Сгруппировать 48" transform="translate(-105.5 -3534.38)" opacity="0.539">
    <g id="Сгруппировать_46" data-name="Сгруппировать 46" transform="translate(105.5 3534.38)">
      <path id="Контур_14" data-name="Контур 14" d="M613.336,709.857H526.719c-26.577,0-48.212-23.2-48.212-51.724S500.142,606.4,526.719,606.4H715.492c6.789,0,12.311-5.989,12.311-13.344s-5.522-13.344-12.311-13.344h-484.5c-25.263,0-45.812-22.046-45.812-49.136s20.548-49.146,45.812-49.146h542.7c40.714,0,74.011-35.654,74.212-79.489L848.649,243a12,12,0,0,0-3.161-8.285,10.181,10.181,0,0,0-7.506-3.352c-5.894,0-10.677,5.157-10.717,11.5l-.96,157.161c-.178,29.3-22.544,53.152-49.855,53.152-27.706,0-50.075-24-50.075-53.509V112.356c0-6.382-4.787-11.577-10.671-11.577s-10.671,5.2-10.671,11.577V399.664c0,29.508-22.37,53.509-49.864,53.509s-49.861-24-49.861-53.509V49.139c0-6.386-4.787-11.585-10.665-11.585s-10.673,5.2-10.673,11.585V399.664c0,29.508-22.366,53.509-49.861,53.509s-49.857-24-49.857-53.509V49.139c0-6.386-4.788-11.585-10.675-11.585s-10.667,5.2-10.667,11.585V399.664c0,29.508-22.368,53.509-49.861,53.509s-49.858-24-49.858-53.509V71.547c0-6.385-4.787-11.577-10.674-11.577S341.84,65.162,341.84,71.547V399.664c0,29.508-22.363,53.509-49.855,53.509s-49.861-24-49.861-53.509V112.356c0-6.382-4.784-11.577-10.674-11.577s-10.674,5.2-10.674,11.577V399.664c0,29.508-22.363,53.509-49.852,53.509s-49.861-24-49.861-53.509V186.774c0-6.379-4.788-11.571-10.674-11.571s-10.671,5.192-10.671,11.571V399.664c0,29.508-22.369,53.509-49.864,53.509S0,429.172,0,399.664V288.549c0-10.369,7.862-18.777,17.565-18.777s17.566,8.408,17.566,18.777V399.664c0,8.792,6.6,15.947,14.724,15.947s14.73-7.155,14.73-15.947V186.774c0-27.091,20.551-49.133,45.8-49.133s45.8,22.042,45.8,49.133V399.664c0,8.792,6.6,15.947,14.73,15.947,8.11,0,14.722-7.155,14.722-15.947V112.356c0-27.093,20.547-49.142,45.8-49.142s45.8,22.049,45.8,49.142V399.664c0,8.792,6.611,15.947,14.734,15.947s14.731-7.155,14.731-15.947V71.547c0-27.094,20.541-49.142,45.8-49.142s45.8,22.048,45.8,49.142V399.664c0,8.792,6.608,15.947,14.727,15.947s14.731-7.155,14.731-15.947V49.139c0-27.1,20.544-49.139,45.8-49.139s45.8,22.044,45.8,49.139V399.664c0,8.792,6.6,15.947,14.728,15.947s14.73-7.155,14.73-15.947V49.139c0-27.1,20.549-49.139,45.8-49.139s45.8,22.044,45.8,49.139V399.664c0,8.792,6.612,15.947,14.731,15.947s14.736-7.155,14.736-15.947V112.356c0-27.093,20.539-49.142,45.8-49.142s45.8,22.049,45.8,49.142V399.664c0,8.792,6.611,15.947,14.731,15.947,8.277,0,14.884-7.106,14.937-15.836l.962-157.163C792.3,215.7,812.84,193.8,837.942,193.8a44,44,0,0,1,32.451,14.414,50.674,50.674,0,0,1,13.388,34.973l-.751,158.941c-.3,64.439-49.354,116.863-109.342,116.863h-542.7c-5.887,0-10.681,5.192-10.681,11.58s4.794,11.574,10.681,11.574h484.5c26.155,0,47.447,22.836,47.447,50.905s-21.292,50.906-47.447,50.906H526.719c-7.211,0-13.082,6.361-13.082,14.174s5.871,14.173,13.082,14.173h86.618c9.707,0,17.569,8.408,17.569,18.778S623.043,709.857,613.336,709.857Z" fill="rgba(243,243,243,0.1)"/>
    </g>
    <g id="Сгруппировать_47" data-name="Сгруппировать 47" transform="translate(1118.57 4244.237) rotate(-90)">
      <path id="Контур_14-2" data-name="Контур 14" d="M492.635,504.93H423.063c-21.347,0-38.724-16.5-38.724-36.792s17.378-36.8,38.724-36.8H574.687a9.5,9.5,0,1,0,0-18.983H185.532c-20.292,0-36.8-15.681-36.8-34.951s16.5-34.958,36.8-34.958h435.9c32.7,0,59.446-25.361,59.607-56.542l.6-113.058a8.014,8.014,0,0,0-2.539-5.893,8.685,8.685,0,0,0-6.029-2.384,8.44,8.44,0,0,0-8.608,8.18l-.771,111.79c-.143,20.845-18.108,37.808-40.044,37.808-22.254,0-40.22-17.072-40.22-38.061V79.92a8.578,8.578,0,0,0-17.142,0V284.286c0,20.989-17.968,38.061-40.051,38.061s-40.049-17.072-40.049-38.061V34.953a8.576,8.576,0,0,0-17.139,0V284.286c0,20.989-17.965,38.061-40.049,38.061s-40.046-17.072-40.046-38.061V34.953a8.578,8.578,0,0,0-17.142,0V284.286c0,20.989-17.966,38.061-40.049,38.061s-40.046-17.072-40.046-38.061V50.893a8.581,8.581,0,0,0-17.147,0V284.286c0,20.989-17.962,38.061-40.043,38.061s-40.049-17.072-40.049-38.061V79.92a8.58,8.58,0,0,0-17.147,0V284.286c0,20.989-17.962,38.061-40.041,38.061s-40.048-17.072-40.048-38.061V132.854a8.579,8.579,0,0,0-17.144,0V284.286c0,20.989-17.967,38.061-40.051,38.061S0,305.276,0,284.286V205.249c0-7.376,6.315-13.356,14.108-13.356s14.109,5.981,14.109,13.356v79.038a11.606,11.606,0,0,0,11.826,11.343,11.607,11.607,0,0,0,11.831-11.343V132.854c0-19.27,16.507-34.949,36.791-34.949s36.791,15.678,36.791,34.949V284.286a11.838,11.838,0,0,0,23.656,0V79.92c0-19.272,16.5-34.955,36.79-34.955S222.69,60.648,222.69,79.92V284.286a11.844,11.844,0,0,0,23.666,0V50.893c0-19.272,16.5-34.955,36.785-34.955s36.791,15.683,36.791,34.955V284.286a11.841,11.841,0,0,0,23.661,0V34.953C343.593,15.68,360.094,0,380.377,0s36.791,15.68,36.791,34.953V284.286a11.841,11.841,0,0,0,23.661,0V34.953C440.829,15.68,457.334,0,477.619,0S514.4,15.68,514.4,34.953V284.286a11.845,11.845,0,0,0,23.668,0V79.92c0-19.272,16.5-34.955,36.786-34.955s36.788,15.684,36.788,34.955V284.286a11.611,11.611,0,0,0,11.832,11.343c6.648,0,11.955-5.055,12-11.264l.773-111.792c.132-19.143,16.631-34.72,36.793-34.72A37.546,37.546,0,0,1,699.1,148.107a33.846,33.846,0,0,1,10.753,24.877l-.6,113.057c-.243,45.836-39.641,83.126-87.824,83.126h-435.9a8.242,8.242,0,1,0,0,16.47H574.687c21.008,0,38.11,16.243,38.11,36.21s-17.1,36.21-38.11,36.21H423.063a10.09,10.09,0,1,0,0,20.163h69.572c7.8,0,14.111,5.981,14.111,13.357S500.431,504.93,492.635,504.93Z" transform="translate(0 0)" fill="rgba(243,243,243,0.1)"/>
    </g>
  </g>
</svg>
