<svg id="signavio-vector-logo" xmlns="http://www.w3.org/2000/svg" width="217.514" height="68.816" viewBox="0 0 217.514 68.816">
  <path id="Контур_4274" data-name="Контур 4274" d="M251.238,297.676a1.73,1.73,0,0,0-1.776,1.631v21.458a1.763,1.763,0,0,0,3.516,0V299.307a1.682,1.682,0,0,0-1.74-1.631m16.238,24.684a19.94,19.94,0,0,0,6.561-1.124,3.256,3.256,0,0,0,.942-.725,2.03,2.03,0,0,0,.326-1.087V310.8a1.89,1.89,0,0,0-.652-1.45,2.029,2.029,0,0,0-1.522-.544h-5.183a1.68,1.68,0,0,0-1.74,1.595,1.64,1.64,0,0,0,1.74,1.558h3.842v6.814a14.877,14.877,0,0,1-4.313.616c-3.335,0-5.908-1.667-5.908-5.219v-8.083c0-3.624,2.61-5.219,5.908-5.219a11.862,11.862,0,0,1,4.386,1.16,1.839,1.839,0,0,0,2.356-.761,1.58,1.58,0,0,0-.689-1.994,13.69,13.69,0,0,0-6.053-1.486c-5.618,0-9.46,3.262-9.46,8.409v7.866c.036,4.386,3.226,8.3,9.46,8.3m94.567-24.684c-5.183,0-8.953,3.117-8.953,7.974v8.735c0,5.22,4.2,7.974,8.989,7.974,5.727,0,8.953-3.588,8.953-7.974V305.65c-.036-4.349-3.262-7.974-8.989-7.974m5.437,16.818c0,2.682-1.776,4.821-5.437,4.821-3.262,0-5.437-1.776-5.437-4.821v-8.88c0-3.153,2.247-4.857,5.437-4.857,3.335,0,5.437,1.812,5.437,4.857ZM236.7,319.315a11.378,11.378,0,0,1-5.038-1.414,1.816,1.816,0,0,0-2.175.471,1.65,1.65,0,0,0,.689,2.32,15.267,15.267,0,0,0,6.524,1.7c6.017,0,8.192-4.2,8.192-6.706,0-4.893-3.733-6.524-7.684-8.119-2.03-.8-4.495-1.45-4.495-3.77,0-2.175,2.175-3.081,4.531-3.081a18,18,0,0,1,4.748,1.087,1.719,1.719,0,0,0,2.139-.834,1.582,1.582,0,0,0-1.087-2.066,15.9,15.9,0,0,0-5.582-1.2c-3.552,0-8.264,1.631-8.264,6.017a5.7,5.7,0,0,0,2.537,4.966,27.32,27.32,0,0,0,5.075,2.284c2.936,1.269,4.821,2.1,4.6,4.712-.217,1.994-2.247,3.625-4.712,3.625m102.831-21.566a1.671,1.671,0,0,0-2.175,1.015c-.073.217-6.416,17.8-6.416,17.8s-6.379-17.688-6.488-17.906c-.326-.8-.979-1.16-2.1-.906a1.571,1.571,0,0,0-1.2,1.849c.109.29,7.793,21.2,7.865,21.458a1.909,1.909,0,0,0,1.885,1.3,1.881,1.881,0,0,0,1.885-1.232c.109-.326,7.757-21.132,7.829-21.349a1.564,1.564,0,0,0-1.087-2.03m-17.978,23.705a1.44,1.44,0,0,0,.109-1.16c-.145-.362-8.047-20.987-8.228-21.458a2.013,2.013,0,0,0-1.849-1.16,1.989,1.989,0,0,0-1.849,1.16c-.181.508-8.083,21.023-8.228,21.458a1.551,1.551,0,0,0,.471,1.631,1.789,1.789,0,0,0,1.16.435,1.747,1.747,0,0,0,1.631-1.051c.109-.254,2.175-5.691,2.175-5.691h9.279s2.03,5.364,2.138,5.618A1.742,1.742,0,0,0,320,322.36a1.813,1.813,0,0,0,1.559-.906M308.144,312.5l3.443-9.17,3.443,9.17Zm38.095-14.825a1.73,1.73,0,0,0-1.776,1.631v21.458a1.763,1.763,0,0,0,3.516,0V299.307a1.682,1.682,0,0,0-1.74-1.631M297.85,320.547v-21.24a1.783,1.783,0,0,0-3.552,0v15.912s-10.113-16.456-10.221-16.637a2.021,2.021,0,0,0-3.7.906v21.24a1.755,1.755,0,0,0,1.776,1.631,1.731,1.731,0,0,0,1.776-1.631V304.853s10.113,16.383,10.221,16.6a1.958,1.958,0,0,0,1.7.906,1.82,1.82,0,0,0,1.993-1.812" transform="translate(-153.518 -272.102)" fill="#18191a"/>
  <path id="Контур_4275" data-name="Контур 4275" d="M81.728,260.04a1.6,1.6,0,0,0-1.3-.8c-.29-.036-2.791-.145-5.038-.218-.507,0-1.812-.036-2.537-.036a.705.705,0,0,1-.29-.036.359.359,0,0,1-.181-.254,21.124,21.124,0,0,0-1.269-3.3c-.544-.979-1.2-1.849-1.667-2.791a10.756,10.756,0,0,1-.906-1.921c-.036-.29,2.066.653,2.284.761a3.774,3.774,0,0,0,1.015.254c.29,0,.507-.036,1.051-.507a1.889,1.889,0,0,0,.652-1.7,4.024,4.024,0,0,0-.834-1.522,8.115,8.115,0,0,1-.942-1.559,23.566,23.566,0,0,0-1.45-3.77,5.949,5.949,0,0,0-2.537-2.1,13.425,13.425,0,0,0-2.175-.906c-1.2-5.219-2.972-7.394-7.467-8.7-4.132-1.16-6.307-1.812-8.119-3.516-.29-.29-.58-.326-.761-.217-.254.145-.217.435-.072.725,1.087,2.066,3.878,3.77,7.757,5.183,2.863,1.051,4.458,2.682,4.821,5.183a6.544,6.544,0,0,1-1.921-.508c-.29-.072-.435-.072-.544.036a.424.424,0,0,0-.109.4,12.2,12.2,0,0,0,.87,2.61A15.717,15.717,0,0,0,61,242.461a43.7,43.7,0,0,0-.471,6.343,60.944,60.944,0,0,1-.254,7.43s-.435.4-1.414,1.3c-1.015.87-6.706,5.074-9.17,6.561-2.1,1.269-8.409,4.857-13.266,6.2-1.921.507-2.247.544-2.284.833-.036.181.072.326.4.471.4.145,2.936,1.087,2.9,1.522-.036,1.2-1.087,2.465-1.74,4.422a5.892,5.892,0,0,1-2.682,2.827c-.58.362-1.16.689-1.631.942a3.8,3.8,0,0,0-1.087.761,9.765,9.765,0,0,1-1.667,2.646c-1.124,1.087-2.211,2.32-3.008,3.19-.906.979-1.957,3.226-2.682,3.914a3.659,3.659,0,0,1-1.124.725c-.29.109-.942.181-1.087.616a3.493,3.493,0,0,0-.254,2.1.887.887,0,0,0,.906.689,1.4,1.4,0,0,0,.616-.217,16.745,16.745,0,0,0,2.646-2.32c2.646-2.972,5.437-7.068,7.612-8.627,2.284-1.667,8.808-3.951,11.671-5.836a29.762,29.762,0,0,0,4.313-3.733c.652-.652,1.2-1.232,1.631-1.667l.507-.507a.5.5,0,0,0,.145-.109A55.087,55.087,0,0,0,64,270.406a13.862,13.862,0,0,0,5.8-3.915c.942-1.051,2.139-2.9,2.356-3.008.109-.036.689-.181.834-.217a19.462,19.462,0,0,1,3.588-.254h.362s-1.232,1.885-1.776,2.573a8.649,8.649,0,0,1-1.849,1.667,4.893,4.893,0,0,0-1.559,1.269A3.973,3.973,0,0,1,69.8,270.3c-1.7.761-1.994,1.3-1.921,1.812s.544,1.74,1.051,1.812a3.3,3.3,0,0,0,1.45-.58A63.994,63.994,0,0,0,77.524,267a43.041,43.041,0,0,0,4.241-5.654,1.5,1.5,0,0,0-.036-1.3" transform="translate(-20.4 -227.144)" fill="#18191a"/>
</svg>
