<svg xmlns="http://www.w3.org/2000/svg" width="174.302" height="30" viewBox="0 0 174.302 30">
  <path id="trainline-com-limited-logo-vector" d="M42.193,272.566a9.256,9.256,0,0,1,13.1,13.075h0L42.629,298.309a3.683,3.683,0,0,1-5.23,0h0l15.283-15.254a5.542,5.542,0,0,0,0-7.845,5.612,5.612,0,0,0-7.874,0h0L34.755,285.234l-4.794-4.794a1.849,1.849,0,0,1,2.615-2.615h0L34.755,280Zm145.218,5.2c5.55,0,8.891,3.545,8.891,9.327,0,.7-.087,1.423-.087,1.511h-12.9a4.364,4.364,0,0,0,4.533,4.1,3.976,3.976,0,0,0,4.1-2.731h0l4.1,1.22a8.152,8.152,0,0,1-8.223,5.724c-4.968,0-9.327-3.574-9.327-9.646C178.55,281.515,182.792,277.767,187.411,277.767Zm-86.643,0c5.724,0,7.845,3.225,7.845,6.857h0v8.862a18.755,18.755,0,0,0,.232,2.847h-4.475a14.609,14.609,0,0,1-.174-2.15,6.036,6.036,0,0,1-5.317,2.673c-3.864,0-6.218-2.616-6.218-5.434,0-3.225,2.383-5.027,5.375-5.492h0l4.445-.639c1.017-.145,1.366-.639,1.366-1.278,0-1.278-.988-2.354-3.022-2.354a3.221,3.221,0,0,0-3.458,2.935h0l-4.329-.9C93.331,280.876,95.917,277.767,100.769,277.767Zm44.774-7.932v20.426c0,1.568.872,2,2.092,2,.261,0,.523,0,.843-.029h0v4.155a8.813,8.813,0,0,1-2,.232c-3.516,0-5.724-2.063-5.724-5.549h0v-21.24Zm-71.679,3.109v5.376H77.5v4.329H73.864V290.2c0,1.568.726,2.092,2.121,2.092a8.558,8.558,0,0,0,1.511-.145h0v4.038a7.523,7.523,0,0,1-2.76.436c-3.516,0-5.724-2.092-5.724-5.578h0v-8.4H65.728v-4.329h.93a2.593,2.593,0,0,0,2.789-2.848h0v-2.528Zm56.977,4.882c4.475,0,6.508,3.2,6.508,7.148h0v11.36h-4.881V285.844c0-2.005-.988-3.6-3.341-3.6-2.121,0-3.37,1.627-3.37,3.719h0V296.3h-4.881V278.29h4.736v2.238A6.012,6.012,0,0,1,130.841,277.825Zm38.818,0c4.475,0,6.508,3.2,6.508,7.148h0v11.36h-4.881V285.844c0-2.005-.988-3.6-3.341-3.6-2.121,0-3.37,1.627-3.37,3.719h0V296.3h-4.881V278.29h4.736v2.238A6.012,6.012,0,0,1,169.659,277.825Zm-79.35.348c.407,0,.755.058,1.133.088h0v4.881A7.059,7.059,0,0,0,89.96,283c-2.5,0-4.649,1.221-4.649,5.084h0V296.3H80.43V278.29h4.736v2.673C86.3,278.609,88.769,278.173,90.309,278.173Zm26.847.146v18.014h-4.881V278.319Zm38.818,0v18.014h-4.881V278.319ZM24.7,272.566a9.292,9.292,0,0,1,12.668-.406h0l-2.644,2.615a5.6,5.6,0,0,0-7.409.407,5.524,5.524,0,0,0,0,7.845h0l7.438,7.41L47.423,277.8a1.849,1.849,0,1,1,2.615,2.615h0L34.755,295.665,24.7,285.641a9.259,9.259,0,0,1,0-13.075Zm79.146,15.661-4.1.61a2.263,2.263,0,0,0-2.237,2.266,2.106,2.106,0,0,0,2.354,2.092c2.063,0,3.981-.988,3.981-4.184h0Zm83.592-6.538a3.924,3.924,0,0,0-4.039,3.574h8.048C191.421,283.461,190.23,281.689,187.441,281.689ZM114.686,269.4a2.993,2.993,0,1,1-2.993,3.022A2.976,2.976,0,0,1,114.686,269.4Zm38.847,0a2.993,2.993,0,1,1-2.993,3.022A2.976,2.976,0,0,1,153.533,269.4Z" transform="translate(-22 -269.398)" fill="#fff" opacity="0.2"/>
</svg>
