<svg xmlns="http://www.w3.org/2000/svg" width="229.734" height="39.609" viewBox="0 0 229.734 39.609">
  <path id="trainline-com-limited-logo-vector" d="M48.615,273.581a12.21,12.21,0,1,1,17.271,17.263h0l-16.7,16.726a4.848,4.848,0,0,1-6.893,0h0l20.143-20.14a7.326,7.326,0,0,0,0-10.358,7.388,7.388,0,0,0-10.378,0h0l-13.25,13.235-6.319-6.33a2.439,2.439,0,0,1,3.447-3.453h0l2.872,2.877Zm191.4,6.867c7.314,0,11.718,4.68,11.718,12.314,0,.921-.115,1.88-.115,1.995h-17a5.756,5.756,0,0,0,5.974,5.409,5.241,5.241,0,0,0,5.4-3.606h0l5.4,1.611c-1.225,4.1-4.978,7.557-10.838,7.557-6.549,0-12.293-4.719-12.293-12.736C228.336,285.4,233.927,280.447,240.016,280.447Zm-114.2,0c7.544,0,10.34,4.258,10.34,9.053h0v11.7a24.792,24.792,0,0,0,.306,3.76h-5.9a19.322,19.322,0,0,1-.23-2.839,7.951,7.951,0,0,1-7.008,3.529c-5.093,0-8.2-3.453-8.2-7.174,0-4.258,3.14-6.637,7.085-7.25h0l5.859-.844c1.34-.192,1.8-.844,1.8-1.688,0-1.688-1.3-3.107-3.983-3.107a4.248,4.248,0,0,0-4.557,3.875h0l-5.706-1.189C116.015,284.552,119.424,280.447,125.819,280.447Zm59.013-10.473v26.969c0,2.071,1.149,2.647,2.757,2.647.345,0,.689,0,1.111-.038h0v5.486a11.605,11.605,0,0,1-2.642.307c-4.634,0-7.544-2.724-7.544-7.327h0V269.974Zm-94.475,4.1v7.1h4.787v5.716H90.357v9.974c0,2.072.957,2.762,2.8,2.762a11.174,11.174,0,0,0,1.991-.192h0v5.332a9.91,9.91,0,0,1-3.638.575c-4.634,0-7.544-2.762-7.544-7.366h0V286.892H79.635v-5.716H80.86a3.421,3.421,0,0,0,3.676-3.759h0v-3.338Zm75.1,6.445c5.9,0,8.578,4.22,8.578,9.437h0v15H167.6V291.112c0-2.647-1.3-4.757-4.4-4.757-2.8,0-4.442,2.148-4.442,4.91h0v13.657h-6.434V281.138h6.242v2.954A7.921,7.921,0,0,1,165.455,280.524Zm51.163,0c5.9,0,8.578,4.22,8.578,9.437h0v15h-6.434V291.112c0-2.647-1.3-4.757-4.4-4.757-2.8,0-4.442,2.148-4.442,4.91h0v13.657h-6.434V281.138h6.242v2.954A7.921,7.921,0,0,1,216.617,280.524Zm-104.585.46c.536,0,1,.077,1.494.115h0v6.445a9.3,9.3,0,0,0-1.953-.192c-3.293,0-6.127,1.611-6.127,6.713h0v10.856H99.012V281.138h6.242v3.529C106.748,281.56,110,280.984,112.033,280.984Zm35.385.192v23.784h-6.434V281.176Zm51.163,0v23.784h-6.434V281.176Zm-173.019-7.6a12.232,12.232,0,0,1,16.7-.537h0L38.773,276.5a7.326,7.326,0,0,0-9.765,10.895h0l9.8,9.782,16.7-16.687a2.439,2.439,0,0,1,3.447,3.452h0l-20.143,20.14-13.25-13.235a12.24,12.24,0,0,1,0-17.263Zm104.317,20.677-5.4.806c-1.647.23-2.949,1.151-2.949,2.992a2.778,2.778,0,0,0,3.1,2.762c2.719,0,5.246-1.3,5.246-5.524h0Zm110.176-8.631a5.175,5.175,0,0,0-5.323,4.718h10.608C245.3,287.966,243.731,285.626,240.054,285.626ZM144.162,269.4a3.951,3.951,0,1,1-3.944,3.99A3.927,3.927,0,0,1,144.162,269.4Zm51.2,0a3.951,3.951,0,1,1-3.944,3.99A3.927,3.927,0,0,1,195.363,269.4Z" transform="translate(-22 -269.398)" fill="#18191a"/>
</svg>
