<svg id="Trustly_Logotype" xmlns="http://www.w3.org/2000/svg" width="199.79" height="42.116" viewBox="0 0 199.79 42.116">
  <g id="Сгруппировать_41" data-name="Сгруппировать 41" transform="translate(56.92 0)">
    <path id="Контур_4266" data-name="Контур 4266" d="M419.59,158V131.013H409.9V124.6h26.352v6.413h-9.69V158Z" transform="translate(-409.9 -124.6)" fill="#18191a"/>
    <path id="Контур_4267" data-name="Контур 4267" d="M536.3,194.734V170.5h6.413v3.836c1.518-3.257,3.476-3.836,5.574-3.836h2.477v6.493h-2.1c-3.017,0-5.714,1.738-5.714,7.053v10.709H536.3Z" transform="translate(-511.047 -161.33)" fill="#18191a"/>
    <path id="Контур_4268" data-name="Контур 4268" d="M623.8,185.864V170.5h6.633v13.865c0,2.837,1.378,4.935,4.215,4.935,2.737,0,4.475-2.1,4.475-4.895V170.5h6.633v24.254h-6.313V191.7a7.9,7.9,0,0,1-6.992,3.616C627.137,195.294,623.8,191.638,623.8,185.864Z" transform="translate(-581.065 -161.33)" fill="#18191a"/>
    <path id="Контур_4269" data-name="Контур 4269" d="M747.9,186.081l5.774-1.319c.28,1.878,1.778,3.3,4.675,3.3,2.238,0,3.476-.919,3.476-2.058,0-.919-.5-1.6-2.8-2.1l-3.8-.819c-4.855-1.059-6.913-3.3-6.913-7.372,0-4.156,3.436-7.512,9.889-7.512,6.853,0,9.61,4.116,9.89,6.813l-5.814,1.279c-.28-1.419-1.319-2.977-4.216-2.977-1.838,0-3.2.819-3.2,2.018,0,1,.679,1.558,1.878,1.838l5.534,1.279c4.215.959,6.174,3.476,6.174,7.053,0,3.836-3.057,7.872-10.07,7.872C750.677,193.354,748.16,188.738,747.9,186.081Z" transform="translate(-680.371 -159.489)" fill="#18191a"/>
    <path id="Контур_4270" data-name="Контур 4270" d="M869.548,165.367c-4.3,0-7.172-2.378-7.172-7.093V146.926H858.3v-5.814h4.076v-5.394l6.633-1.918v7.312h4.9v5.814h-4.9v10.149c0,1.778.919,2.477,2.7,2.477h2.557v5.814Z" transform="translate(-768.714 -131.962)" fill="#18191a"/>
    <path id="Контур_4271" data-name="Контур 4271" d="M956.2,158.085V124.7h6.633v33.4H956.2Z" transform="translate(-847.055 -124.68)" fill="#18191a"/>
    <path id="Контур_4272" data-name="Контур 4272" d="M1018.841,170.5h7.093l-10.109,32.945h-7.093l2.8-8.691h-3.656L1001.2,170.5h7.093l4.995,18.76Z" transform="translate(-883.064 -161.33)" fill="#18191a"/>
  </g>
  <path id="Контур_4273" data-name="Контур 4273" d="M125,139.325h15.564V126.9l12.427,12.427-12.427,12.407v6.353h15.084v-18.76h13.845V124.7H125Z" transform="translate(-125 -124.68)" fill="#18191a"/>
</svg>
