<svg xmlns="http://www.w3.org/2000/svg" width="132.299" height="100" viewBox="0 0 132.299 100">
  <g id="Сгруппировать_28" data-name="Сгруппировать 28" opacity="0.2">
    <path id="Контур_14" data-name="Контур 14" d="M-1232.986-1230.609h-12.966a7.261,7.261,0,0,1-7.217-7.286,7.261,7.261,0,0,1,7.217-7.288h28.259a1.864,1.864,0,0,0,1.843-1.88,1.863,1.863,0,0,0-1.843-1.88h-72.529a6.9,6.9,0,0,1-6.858-6.922,6.9,6.9,0,0,1,6.858-6.923h81.24a11.206,11.206,0,0,0,11.109-11.2l.112-22.391a1.636,1.636,0,0,0-.473-1.167,1.568,1.568,0,0,0-1.124-.472,1.619,1.619,0,0,0-1.6,1.62l-.144,22.14a7.519,7.519,0,0,1-7.463,7.488,7.516,7.516,0,0,1-7.5-7.538v-40.474a1.616,1.616,0,0,0-1.6-1.631,1.616,1.616,0,0,0-1.6,1.631v40.474a7.51,7.51,0,0,1-7.465,7.538,7.51,7.51,0,0,1-7.464-7.538v-49.38a1.617,1.617,0,0,0-1.6-1.632,1.617,1.617,0,0,0-1.6,1.632v49.38a7.509,7.509,0,0,1-7.464,7.538,7.51,7.51,0,0,1-7.464-7.538v-49.38a1.617,1.617,0,0,0-1.6-1.632,1.617,1.617,0,0,0-1.6,1.632v49.38a7.51,7.51,0,0,1-7.464,7.538,7.509,7.509,0,0,1-7.464-7.538v-46.223a1.616,1.616,0,0,0-1.6-1.631,1.616,1.616,0,0,0-1.6,1.631v46.223a7.509,7.509,0,0,1-7.463,7.538,7.509,7.509,0,0,1-7.464-7.538v-40.474a1.616,1.616,0,0,0-1.6-1.631,1.616,1.616,0,0,0-1.6,1.631v40.474a7.509,7.509,0,0,1-7.463,7.538,7.509,7.509,0,0,1-7.464-7.538V-1304.3a1.616,1.616,0,0,0-1.6-1.63,1.616,1.616,0,0,0-1.6,1.63v29.991a7.51,7.51,0,0,1-7.464,7.538,7.509,7.509,0,0,1-7.463-7.538v-15.653a2.637,2.637,0,0,1,2.629-2.645,2.638,2.638,0,0,1,2.63,2.645v15.653a2.228,2.228,0,0,0,2.2,2.247,2.228,2.228,0,0,0,2.2-2.247V-1304.3a6.9,6.9,0,0,1,6.857-6.921,6.9,6.9,0,0,1,6.857,6.921v29.991a2.228,2.228,0,0,0,2.205,2.247,2.229,2.229,0,0,0,2.2-2.247v-40.474a6.9,6.9,0,0,1,6.857-6.923,6.9,6.9,0,0,1,6.856,6.923v40.474a2.229,2.229,0,0,0,2.206,2.247,2.229,2.229,0,0,0,2.205-2.247v-46.223a6.9,6.9,0,0,1,6.856-6.923,6.9,6.9,0,0,1,6.857,6.923v46.223a2.229,2.229,0,0,0,2.2,2.247,2.229,2.229,0,0,0,2.205-2.247v-49.38a6.9,6.9,0,0,1,6.856-6.922,6.9,6.9,0,0,1,6.857,6.922v49.38a2.228,2.228,0,0,0,2.2,2.247,2.229,2.229,0,0,0,2.205-2.247v-49.38a6.9,6.9,0,0,1,6.857-6.922,6.9,6.9,0,0,1,6.855,6.922v49.38a2.229,2.229,0,0,0,2.205,2.247,2.23,2.23,0,0,0,2.206-2.247v-40.474a6.9,6.9,0,0,1,6.856-6.923,6.9,6.9,0,0,1,6.856,6.923v40.474a2.229,2.229,0,0,0,2.205,2.247,2.237,2.237,0,0,0,2.236-2.231l.144-22.14a6.906,6.906,0,0,1,6.857-6.876,6.78,6.78,0,0,1,4.858,2.031,6.908,6.908,0,0,1,2,4.927l-.112,22.391a16.493,16.493,0,0,1-16.368,16.463h-81.24a1.617,1.617,0,0,0-1.6,1.631,1.617,1.617,0,0,0,1.6,1.631h72.529a7.146,7.146,0,0,1,7.1,7.171,7.146,7.146,0,0,1-7.1,7.171h-28.259a1.98,1.98,0,0,0-1.958,2,1.98,1.98,0,0,0,1.958,2h12.966a2.637,2.637,0,0,1,2.63,2.645A2.637,2.637,0,0,1-1232.986-1230.609Z" transform="translate(1324.801 1330.609)" fill="#fff"/>
  </g>
</svg>
