<svg xmlns="http://www.w3.org/2000/svg" width="413.597" height="334.855" viewBox="0 0 413.597 334.855">
  <g id="Сгруппировать_36" data-name="Сгруппировать 36" transform="translate(0)" opacity="0.1">
    <path id="Контур_14" data-name="Контур 14" d="M-1037.768-995.754H-1078.3c-12.437,0-22.563-10.944-22.563-24.4s10.125-24.4,22.563-24.4h88.343a6.053,6.053,0,0,0,5.761-6.295,6.052,6.052,0,0,0-5.761-6.294H-1216.7c-11.823,0-21.439-10.4-21.439-23.179s9.616-23.183,21.439-23.183h253.974c19.054,0,34.636-16.819,34.73-37.5l.352-74.977a5.687,5.687,0,0,0-1.479-3.908,4.748,4.748,0,0,0-3.513-1.581,5.255,5.255,0,0,0-5.016,5.425l-.449,74.136c-.083,13.824-10.55,25.073-23.331,25.073-12.966,0-23.435-11.322-23.435-25.241v-135.53a5.25,5.25,0,0,0-4.994-5.461,5.249,5.249,0,0,0-4.994,5.461v135.53c0,13.919-10.469,25.241-23.336,25.241s-23.334-11.322-23.334-25.241v-165.351a5.252,5.252,0,0,0-4.991-5.465,5.252,5.252,0,0,0-4.995,5.465v165.351c0,13.919-10.467,25.241-23.334,25.241s-23.333-11.322-23.333-25.241v-165.351a5.252,5.252,0,0,0-5-5.465,5.251,5.251,0,0,0-4.992,5.465v165.351c0,13.919-10.468,25.241-23.335,25.241s-23.333-11.322-23.333-25.241v-154.78a5.249,5.249,0,0,0-5-5.461,5.249,5.249,0,0,0-5,5.461v154.78c0,13.919-10.465,25.241-23.331,25.241s-23.334-11.322-23.334-25.241v-135.53a5.249,5.249,0,0,0-5-5.461,5.25,5.25,0,0,0-5,5.461v135.53c0,13.919-10.466,25.241-23.33,25.241s-23.334-11.322-23.334-25.241V-1242.5a5.248,5.248,0,0,0-5-5.458,5.248,5.248,0,0,0-4.994,5.458v100.425c0,13.919-10.468,25.241-23.336,25.241s-23.331-11.322-23.331-25.241v-52.415c0-4.892,3.679-8.858,8.22-8.858s8.22,3.966,8.22,8.858v52.415c0,4.147,3.091,7.522,6.891,7.522s6.894-3.375,6.894-7.522V-1242.5c0-12.779,9.617-23.177,21.436-23.177s21.436,10.4,21.436,23.177v100.425c0,4.147,3.091,7.522,6.894,7.522s6.889-3.375,6.889-7.522v-135.53c0-12.781,9.616-23.182,21.436-23.182s21.434,10.4,21.434,23.182v135.53c0,4.147,3.094,7.522,6.9,7.522s6.894-3.375,6.894-7.522v-154.78c0-12.781,9.613-23.182,21.433-23.182s21.436,10.4,21.436,23.182v154.78c0,4.147,3.092,7.522,6.892,7.522s6.894-3.375,6.894-7.522v-165.351c0-12.781,9.615-23.18,21.433-23.18s21.436,10.4,21.436,23.18v165.351c0,4.147,3.091,7.522,6.892,7.522s6.893-3.375,6.893-7.522v-165.351c0-12.781,9.616-23.18,21.436-23.18s21.431,10.4,21.431,23.18v165.351c0,4.147,3.094,7.522,6.894,7.522s6.9-3.375,6.9-7.522v-135.53c0-12.781,9.612-23.182,21.433-23.182s21.434,10.4,21.434,23.182v135.53c0,4.147,3.094,7.522,6.893,7.522a7.255,7.255,0,0,0,6.991-7.47l.45-74.138c.077-12.695,9.69-23.025,21.437-23.025a20.518,20.518,0,0,1,15.186,6.8,24.01,24.01,0,0,1,6.265,16.5l-.352,74.976c-.142,30.4-23.1,55.127-51.17,55.127H-1216.7a5.252,5.252,0,0,0-5,5.463,5.252,5.252,0,0,0,5,5.46h226.74c12.24,0,22.2,10.772,22.2,24.013s-9.964,24.013-22.2,24.013H-1078.3a6.431,6.431,0,0,0-6.122,6.686,6.431,6.431,0,0,0,6.122,6.686h40.536c4.543,0,8.222,3.966,8.222,8.858S-1033.225-995.754-1037.768-995.754Z" transform="translate(1324.801 1330.609)" fill="#fff"/>
  </g>
</svg>
